<svg xmlns="http://www.w3.org/2000/svg" width="500" height="491.2" viewBox="0 0 500 491.2">
  <g id="compass" transform="translate(-454.5 -809.3)">
    <path id="Path_511" data-name="Path 511" d="M708.7,838.4l.4-.5v-2.4l-.4-.5h-2.9l-1.7-1.8V821.1l3.2-1,13.4,18.3.3.2h1.3l2.1-.5.4-.4V814.3l1.7-1.7,1.2-.1.4-.4v-2.4l-.4-.4h-11l-.4.4v2.4l.4.6h2.6l1.7,1.7v12.9l-3.1,1-13.8-18.9-.4-.1h-6.5l-.4.4v2.4l.4.5h1.4l1.6,1.7v19l-1.7,1.7-1.3.1-.4.4v2.4l.4.5Z" fill="#404040"/>
    <path id="Path_512" data-name="Path 512" d="M714.4,1283.6l-4.3-.7c-4.4-.7-6.2-1.8-6.2-4.7,0-3,2.7-4.5,8-4.5a18.7,18.7,0,0,1,3.4.3l1.5,1.9-.4,3.2.3.5,2.4.4.5-.3.7-2.6,2.2-1.4.9-2.2-.2-.5a24.913,24.913,0,0,0-11.4-2.6c-7.5,0-12,2.9-12,8.2,0,4.5,3,7.2,9.1,8l4.4.6c4.5.6,6.2,2,6.2,4.9,0,3.6-2.8,5.1-8.2,5.1a32.249,32.249,0,0,1-4.9-.4l-1.3-1.8v-3.4l-.4-.6h-2.3l-.5.3-.4,2.2-2.2,1.5-1,2.6.3.5a30.468,30.468,0,0,0,12.8,2.4c7.8,0,12.2-3.4,12.2-8.6C723.6,1287.3,720.6,1284.5,714.4,1283.6Z" fill="#404040"/>
    <path id="Path_513" data-name="Path 513" d="M952.7,1064l.8-6-.4-.4-2.6-.4-.4.4-1.2,6.5-1.8,1.4H936.7l-1.7-1.7V1057l1.7-1.7h9l.4-.5v-2.5l-.4-.4h-9l-1.7-1.8V1045l1.7-1.7h9.2l1.7,1.4.8,4.7.5.3,2.5-.3.4-.4-.4-4.2,2.1-2.3v-2.2l-.5-.4H928l-.5.4v2.4l.4.5h1.5l1.7,1.8v18.9l-1.7,1.8H928l-.5.4v2.5l.5.4h26l.5-.4v-2.3Z" fill="#404040"/>
    <path id="Path_514" data-name="Path 514" d="M489,1037.8l-.5.4v2.4l.5.5h1.4l1.6,2.3-4.2,13.6h-3.4l-5.2-18-.4-.3h-3.5l-.4.3-5.2,18h-3.4l-4.1-13.6,1.6-2.3h1.9l.4-.5v-2.4l-.4-.4H454.9l-.4.4v2.4l.4.5H456l1.6,1.2,8,24.4.4.3h4.1l.5-.3,4.7-16.5h3.3l4.7,16.5.4.3h4.2l.4-.3,8-24.4,1.6-1.2h1l.4-.5v-2.4l-.4-.4Z" fill="#404040"/>
    <path id="Path_515" data-name="Path 515" d="M868.4,1189.1l-2.8,2.1c-2.8,2.2-4.5,2.3-6.2.7-2-2-1.3-4.4,1.7-7.4a28.188,28.188,0,0,1,2.9-2.5l1.7.3,1.9,1.9.6.1,1.3-1.3.1-.5-1-1.5.4-2.1-.9-2-.4-.1a26.466,26.466,0,0,0-8.5,5.7c-4.4,4.4-4.8,8.7-2,11.5,2.6,2.6,5.9,2.5,9.9-.4l2.8-2c2.8-2.1,4.4-2.4,6-.8,1.7,1.7,1,4-2,7a18.115,18.115,0,0,1-2.1,1.8l-1.9-.3-1.6-2-.5-.1-1.6,1.1-.1.4,1.1,1.8-.4,2,.7,1.7.4.2a18.235,18.235,0,0,0,7.7-4.9c4.2-4.2,5.1-8.3,2.1-11.2C875.5,1186,872.4,1186.1,868.4,1189.1Z" fill="#404040"/>
    <path id="Path_516" data-name="Path 516" d="M864.7,1206.5l-.8.7H862l-10.5-10.5v-1.9l.7-.8v-.5l-1.3-1.3h-.5l-14.5,14.4v.6l1.2,1.1,2.3.4,2.9,3.8h.5l1.6-1.3v-.4l-2.9-4.3.1-1.8,5.8-5.7h1.9l3.8,3.7v2l-4.9,4.9v.5l1.4,1.4h.5l4.9-4.9h2l2.7,2.8v1.9l-5,5.1-1.7.1-3.1-2-.5.1-1.2,1.4v.6l2.5,2,.2,2.4,1.3,1.3h.4l14-14v-.4l-1.4-1.4Z" fill="#404040"/>
    <path id="Path_517" data-name="Path 517" d="M840.4,905.2l1.3-1.4.1-.5-1.6-1.7v-1.9l6.7-6.7,2.3,1.1-2.7,17.7.2.3.7.7,1.4.9h.4l13-13h1.9l.7.6h.5l1.3-1.4v-.4l-6.1-6.1h-.4l-1.4,1.3-.1.6,1.5,1.4v1.9l-7.2,7.2-2.3-1.2,2.8-18.1-.1-.3-3.7-3.6h-.4l-1.4,1.3v.5l.8.8v1.9L838,897.6h-1.9l-.8-.7h-.5l-1.2,1.4v.4l6.3,6.5Z" fill="#404040"/>
    <path id="Path_518" data-name="Path 518" d="M868.1,906.6l-10.5,10.6h-1.9l-.8-.7h-.4l-1.4,1.3v.5l14.5,14.4h.4l1.3-1.2.3-2.3,3.7-2.8.1-.5-1.2-1.6-.5-.1-4.3,3-1.7-.1-5.8-5.9v-1.8l3.7-3.8h1.9l5,4.9h.4l1.5-1.4v-.5l-5-4.9v-2l2.9-2.8h1.9l5,5,.2,1.7-2.1,3.1.1.5,1.6,1.2h.4l2.1-2.5,2.5-.2,1.1-1.2V916l-13.8-13.9h-.5l-1.4,1.4v.5l.8.7Z" fill="#404040"/>
    <path id="Path_519" data-name="Path 519" d="M538.6,922.8l.8-.8,1.8.1,10.5,10.5v1.9l-.6.7v.6l1.3,1.3h.5l6.4-6.5v-.4l-1.3-1.3-.6-.1-1.7,1.6h-1.9l-6.7-6.7,1.2-2.3,17.6,2.6.3-.1.7-.6,1-1.4-.1-.5-12.9-13v-1.9l.6-.7v-.4l-1.4-1.4h-.5l-6,6.1v.5l1.3,1.3.5.1,1.5-1.4h1.9l7.1,7.1-1.1,2.3-18.1-2.8-.3.1-3.7,3.6v.5l1.4,1.3Z" fill="#404040"/>
    <path id="Path_520" data-name="Path 520" d="M557.6,903.7l.6-.6,1.6-.2,18,9h.3l2.4-2.4v-.4L574,897.4l1.8-1.8,11.8,6.5.4-.1,2.4-2.3v-.4l-9.1-17.9.2-1.5.6-.6v-.5l-1.3-1.4h-.6l-5.5,5.5v.5l1.3,1.3h.6l.8-.7,2.1.4,5.2,9.9-1.9,1.8L569.9,889l-.4.1-1.9,1.9v.4l7.1,12.9-1.9,1.8-9.8-5.2-.4-2.2,1-1.1v-.4l-1.3-1.4h-.5l-6,6v.5l1.4,1.4Z" fill="#404040"/>
    <path id="Path_521" data-name="Path 521" d="M576.4,1201c-2.6,2.6-2.5,5.9.4,9.9l2,2.8c2.1,2.8,2.4,4.4.8,6-1.7,1.7-4,1-7-2a18.115,18.115,0,0,1-1.8-2.1l.3-1.9,2-1.6.1-.5-1.1-1.6-.4-.1-1.8,1.1-2-.4-1.7.7-.1.4a18.235,18.235,0,0,0,4.9,7.7c4.2,4.2,8.3,5.1,11.2,2.1,2.5-2.5,2.4-5.6-.6-9.5l-2.1-2.8c-2.2-2.8-2.3-4.5-.7-6.2,2-2,4.4-1.3,7.4,1.7a28.2,28.2,0,0,1,2.5,2.9l-.3,1.7-1.9,1.9-.1.6,1.3,1.3.5.1,1.5-1,2.1.4,2-.9.1-.4a26.464,26.464,0,0,0-5.7-8.5C583.5,1198.6,579.2,1198.1,576.4,1201Z" fill="#404040"/>
    <path id="Path_522" data-name="Path 522" d="M563.6,1206.6l9-17.9v-.5l-2.3-2.2-.4-.1-11.8,6.5-1.8-1.8,6.5-11.8v-.4l-2.4-2.3-.4-.1-17.9,9.1-1.6-.2-.6-.6h-.5l-1.3,1.4v.5l5.5,5.5h.5l1.4-1.4v-.4l-.8-.8.4-2.2,9.8-5.2,1.9,1.9-7.1,12.8.1.5,1.9,1.9.4.1,12.9-7.1,1.8,1.8-5.2,9.9-2.2.4-1-1.1h-.5l-1.4,1.3v.5l6.1,6h.4l1.4-1.3.1-.5-.7-.7Z" fill="#404040"/>
    <path id="Path_523" data-name="Path 523" d="M886.6,1048.8c-2.4-92-76.4-166.5-168.3-169.6l-3.2-35.1c-.9,0-1.9-.1-2.8-.1h-1.4l-3.2,35c-92,2.5-166.5,76.5-169.6,168.4l-35.1,3.2c0,.9-.1,1.9-.1,2.8v1.4l35,3.2c2.4,92,76.5,166.5,168.3,169.6l3.2,35.1c.9,0,1.9.1,2.8.1h1.4l3.2-35c92-2.4,166.5-76.5,169.6-168.3l35.1-3.2c0-.9.1-1.9.1-2.8v-1.4ZM853,955.2a171.561,171.561,0,0,1,28.4,68.4l-8.3,1.5a162.256,162.256,0,0,0-27-65ZM742.3,884.4a171.561,171.561,0,0,1,68.4,28.4l-4.8,6.9a162.256,162.256,0,0,0-65-27Zm130.4,163.1-4.9-.5c-3.3-80.3-67.6-145.1-147.7-149.1l-.5-4.9C802.8,896.9,869.7,964.2,872.7,1047.5Zm-45.8-35.2a123.856,123.856,0,0,0-8.5-18.5l11-18.1-21,3.2c-2.2-2.8-4.6-5.6-7-8.3L818,949.8a1.39,1.39,0,0,0-.1-1.9,1.3,1.3,0,0,0-1.9.1l-19.7,17.4a122.925,122.925,0,0,0-9.5-8.1l3.2-21-18.1,11.1a123.856,123.856,0,0,0-18.5-8.5L750,918.1l-13.7,16.1a109.5,109.5,0,0,0-12.8-1.8l-3-31.8c78.6,4.1,141.7,67.6,145.1,146.5l-31.8-3a134.866,134.866,0,0,0-2-14.4l16-13.7Zm4.9,64.7a125.321,125.321,0,0,0,1.8-12.5l31.8-3c-4.1,78.6-67.6,141.7-146.5,145.1l3-31.8a102.67,102.67,0,0,0,13.7-1.9l13.6,16.2,3.6-20.8a124.488,124.488,0,0,0,18.6-8.4l18,11.2-3-21c3.1-2.4,6-4.9,8.9-7.5l20.8,16.6a1.39,1.39,0,0,0,1.9-.1,1.3,1.3,0,0,0-.1-1.9l-17.4-19.7a125.27,125.27,0,0,0,8.3-9.7l21,3.1-11.1-18a120.5,120.5,0,0,0,8.5-18.6l20.8-3.5ZM788,1145.2a117.155,117.155,0,0,1-15.3,10.8l-15.1-26.2a77.991,77.991,0,0,0,11-7.8Zm-13.1-18.7,18.1,14.4c-1.1,1.1-2.3,2.1-3.4,3.1Zm-31.3,10a84.919,84.919,0,0,0,12.2-5.7l15.1,26.2a139.2,139.2,0,0,1-17,8Zm8.4,29.2a120.618,120.618,0,0,1-18.1,4.9l-5.3-29.7a80.28,80.28,0,0,0,13-3.5Zm-26.3-31.2,4.1-43.8,33.8,26.8A82.346,82.346,0,0,1,725.7,1134.5Zm1,6.6,5.3,29.8c-3.2.5-6.5.9-9.8,1.2l2.8-30.8A9.844,9.844,0,0,0,726.7,1141.1Zm76-10.4a57.446,57.446,0,0,1-4.1,4.5l-18.7-23.6Zm-21.8-20.9a94.165,94.165,0,0,0,7.7-11l26.2,15.1a117.149,117.149,0,0,1-10.8,15.3Zm48.7-36.6-29.8-5.3c0-.1,0-.1.1-.3l30.8-2.9C830.4,1067.6,830.1,1070.4,829.6,1073.2Zm-.3,1.9a112.5,112.5,0,0,1-4.9,18.1L796,1082.9a92.028,92.028,0,0,0,3.5-13Zm-5.5,20a125.293,125.293,0,0,1-7.9,17L789.7,1097a90.268,90.268,0,0,0,5.7-12.2Zm-48.4,10.8-26.6-33.5,44.2-4.1A81.25,81.25,0,0,1,775.4,1105.9Zm23.3,36L731,1088.1l-7-14.1a28.584,28.584,0,0,0,4-2.8Zm-30.2-157a94.17,94.17,0,0,0-11-7.7L772.6,951a117.144,117.144,0,0,1,15.3,10.8Zm21-21.9a57.446,57.446,0,0,1,4.5,4.1l-23.6,18.7Zm-33.7,13.1a90.265,90.265,0,0,0-12.2-5.7L753.9,942a125.293,125.293,0,0,1,17,7.9Zm-14.1-6.4a92.03,92.03,0,0,0-13-3.5l5.3-29.7a112.492,112.492,0,0,1,18.1,4.9Zm-15-3.8c-.1,0-.1,0-.3-.1L723.5,935c2.8.3,5.6.6,8.4,1.1Zm38,24.4-33.5,26.6-4.1-44.2A83.772,83.772,0,0,1,764.7,990.3Zm36-23.3-53.8,67.7-14.1,7a28.575,28.575,0,0,0-2.8-4Zm-15.4,24,14.4-18.1c1.1,1.1,2.1,2.3,3.1,3.4Zm18.8-13.2a117.148,117.148,0,0,1,10.8,15.3l-26.2,15.1a77.991,77.991,0,0,0-7.8-11Zm-27.8,24.4a81.886,81.886,0,0,1,17,37.9l-43.8-4.1Zm13.3,7.8,26.2-15.1a139.193,139.193,0,0,1,8,17l-28.4,10.3A97.691,97.691,0,0,0,789.6,1010Zm34.8,3.7a120.608,120.608,0,0,1,4.9,18.1l-29.7,5.3a80.272,80.272,0,0,0-3.5-13Zm5.2,20.1c.5,3.2.9,6.5,1.2,9.8l-30.8-2.8c-.1-.5-.2-1.1-.3-1.7ZM713.7,858.7l14.8,159-7,14a22.821,22.821,0,0,0-7.9-1.8l.1-171.2Zm-31.4,25.7,1.5,8.3a162.256,162.256,0,0,0-65,27l-4.8-6.9A170.535,170.535,0,0,1,682.3,884.4Zm24,8.7-.5,4.9c-80.3,3.3-145.1,67.6-149.1,147.7l-4.9.5C555.7,963,623,896.1,706.3,893.1ZM597.7,1094.7a123.856,123.856,0,0,0,8.5,18.5l-11,18.1,21-3.2c2.2,2.8,4.6,5.6,7,8.3l-16.6,20.8a1.39,1.39,0,0,0,.1,1.9,1.3,1.3,0,0,0,1.9-.1l19.7-17.4a122.912,122.912,0,0,0,9.5,8.1l-3.2,21,18.1-11.1a123.856,123.856,0,0,0,18.5,8.5l3.4,20.8,13.7-16.1a109.5,109.5,0,0,0,12.8,1.8l3,31.8c-78.6-4.1-141.7-67.7-145.1-146.5l31.8,3a134.866,134.866,0,0,0,2,14.4l-16,13.7Zm22.8,34.5a117.149,117.149,0,0,1-10.8-15.3l26.2-15.1a77.991,77.991,0,0,0,7.8,11Zm18.8-13.2-14.4,18.1c-1.1-1.1-2.1-2.3-3.1-3.4Zm-8-49.1,43.8,4.1-26.8,33.8A80.888,80.888,0,0,1,631.3,1066.9ZM635,1097l-26.2,15.1a139.193,139.193,0,0,1-8-17l28.4-10.3A90.82,90.82,0,0,0,635,1097Zm-34.9-3.7a120.613,120.613,0,0,1-4.9-18.1l29.7-5.3a80.272,80.272,0,0,0,3.5,13Zm-5.2-20.1c-.5-3.2-.9-6.5-1.2-9.8l30.8,2.8c.1.5.2,1.1.3,1.7Zm75.7,91.8a125.286,125.286,0,0,1-17-7.9l15.1-26.2a90.265,90.265,0,0,0,12.2,5.7Zm12.2-27.7a92.03,92.03,0,0,0,13,3.5l-5.3,29.7a112.5,112.5,0,0,1-18.1-4.9ZM651.9,1156a117.139,117.139,0,0,1-15.3-10.8L656,1122a94.155,94.155,0,0,0,11,7.7ZM635,1144a57.458,57.458,0,0,1-4.5-4.1l23.6-18.7Zm57.6,26.9,5.3-29.8c.1,0,.1,0,.3.1l2.9,30.8C698.2,1171.7,695.4,1171.3,692.6,1170.9Zm-32.7-54.3,33.5-26.6,4.1,44.2A81.249,81.249,0,0,1,659.9,1116.6Zm-36,23.4,53.8-67.7,14.1-7a28.575,28.575,0,0,0,2.8,4Zm-28.6-108.1a112.494,112.494,0,0,1,4.9-18.1l28.4,10.3a92.028,92.028,0,0,0-3.5,13Zm29.4,7.2c0,.1,0,.1-.1.3l-30.8,2.9c.3-2.8.6-5.6,1.1-8.4Zm-23.9-27.3a125.293,125.293,0,0,1,7.9-17l26.2,15.1a90.265,90.265,0,0,0-5.7,12.2Zm42.9-14.6a94.17,94.17,0,0,0-7.7,11l-26.2-15.1a117.144,117.144,0,0,1,10.8-15.3Zm-21.9-20.9a57.446,57.446,0,0,1,4.1-4.5l18.7,23.6Zm27.4,24.8,26.6,33.5-44.2,4.1A81.25,81.25,0,0,1,649.2,1001.1Zm-23.4-36,67.7,53.8,7,14.1a28.584,28.584,0,0,0-4,2.8Zm57,4.6-10.3-28.5a120.611,120.611,0,0,1,18.1-4.9l5.3,29.7C691.4,967.1,687.1,968.3,682.8,969.7Zm16.1,2.8-4.1,43.8L661,989.5A81.886,81.886,0,0,1,698.9,972.5ZM681,970.4a84.912,84.912,0,0,0-12.2,5.7L653.6,950a139.193,139.193,0,0,1,17-8Zm-14,6.8a77.991,77.991,0,0,0-11,7.8l-19.5-23.2A117.148,117.148,0,0,1,651.8,951Zm-17.3,3.3-18.1-14.4c1.1-1.1,2.3-2.1,3.4-3.1Zm49.8-14.8c-.5.1-1.1.2-1.7.3l-5.3-29.8c3.2-.5,6.5-.9,9.8-1.2ZM688.9,934l-13.6-16.2-3.6,20.8a124.482,124.482,0,0,0-18.6,8.4l-18-11.2,3,21c-3.1,2.4-6,4.9-8.9,7.5l-20.8-16.6a1.39,1.39,0,0,0-1.9.1,1.3,1.3,0,0,0,.1,1.9L624,969.4a125.259,125.259,0,0,0-8.3,9.7l-21-3.1,11.1,18a120.5,120.5,0,0,0-8.5,18.6l-20.8,3.5,16.1,13.7a125.321,125.321,0,0,0-1.8,12.5l-31.8,3c4.1-78.6,67.7-141.7,146.5-145.1l-3,31.8C698,932.5,693.5,933.1,688.9,934ZM571.6,955.2l6.9,4.8a162.256,162.256,0,0,0-27,65l-8.3-1.5A170.3,170.3,0,0,1,571.6,955.2Zm-54.1,96.9,159-14.8,14,7a22.819,22.819,0,0,0-1.8,7.9l-171.2-.1Zm54.1,99.7a171.561,171.561,0,0,1-28.4-68.4l8.3-1.5a162.256,162.256,0,0,0,27,65Zm110.7,70.8a171.561,171.561,0,0,1-68.4-28.4l4.8-6.9a162.256,162.256,0,0,0,65,27ZM551.8,1059.4l4.9.5c3.3,80.3,67.6,145.1,147.7,149.1l.5,4.9C621.8,1210.1,554.9,1142.8,551.8,1059.4Zm159.1,188.9-14.8-159,7-14a22.821,22.821,0,0,0,7.9,1.8l-.1,171.2Zm1.4-176.7a18.1,18.1,0,1,1,18.1-18.1A18.1,18.1,0,0,1,712.3,1071.6Zm30,151-1.5-8.3a162.256,162.256,0,0,0,65-27l4.8,6.9A170.533,170.533,0,0,1,742.3,1222.6Zm-24-8.7.5-4.9c80.3-3.3,145.1-67.6,149.1-147.7l4.9-.5C868.9,1144,801.6,1210.9,718.3,1213.9ZM853,1151.8l-6.9-4.8a162.256,162.256,0,0,0,27-65l8.3,1.5A171.731,171.731,0,0,1,853,1151.8Zm-104.9-82.1-14-7a22.819,22.819,0,0,0,1.8-7.9H907Z" fill="#404040"/>
    <circle id="Ellipse_1" data-name="Ellipse 1" cx="11.5" cy="11.5" r="11.5" transform="translate(700.8 1042)" fill="#404040"/>
  </g>
</svg>
