<svg xmlns="http://www.w3.org/2000/svg" width="25" height="18.75" viewBox="0 0 25 18.75">
  <path id="envelope" d="M22.656,64H2.344A2.344,2.344,0,0,0,0,66.344V80.406A2.344,2.344,0,0,0,2.344,82.75H22.656A2.344,2.344,0,0,0,25,80.406V66.344A2.344,2.344,0,0,0,22.656,64ZM2.344,65.563H22.656a.784.784,0,0,1,.781.781v2.021c-1.069.9-2.6,2.148-7.354,5.923-.825.654-2.451,2.231-3.584,2.212-1.133.02-2.764-1.558-3.584-2.212-4.756-3.774-6.284-5.02-7.354-5.923V66.344A.784.784,0,0,1,2.344,65.563ZM22.656,81.188H2.344a.784.784,0,0,1-.781-.781V70.4c1.113.913,2.871,2.324,6.382,5.112,1,.8,2.769,2.563,4.556,2.554,1.777.015,3.53-1.733,4.556-2.554,3.511-2.788,5.269-4.2,6.382-5.112v10.01A.784.784,0,0,1,22.656,81.188Z" transform="translate(0 -64)" fill="#f4f6ff"/>
</svg>
