<svg xmlns="http://www.w3.org/2000/svg" width="25" height="25" viewBox="0 0 25 25">
  <path id="fax" d="M19.141,14.844h.781a.391.391,0,0,0,.391-.391v-.781a.391.391,0,0,0-.391-.391h-.781a.391.391,0,0,0-.391.391v.781A.391.391,0,0,0,19.141,14.844Zm0,6.25h.781a.391.391,0,0,0,.391-.391v-.781a.391.391,0,0,0-.391-.391h-.781a.391.391,0,0,0-.391.391V20.7A.391.391,0,0,0,19.141,21.094ZM3.906,6.25H2.344A2.344,2.344,0,0,0,0,8.594V22.656A2.344,2.344,0,0,0,2.344,25H3.906A2.344,2.344,0,0,0,6.25,22.656V8.594A2.344,2.344,0,0,0,3.906,6.25Zm.781,16.406a.781.781,0,0,1-.781.781H2.344a.781.781,0,0,1-.781-.781V8.594a.781.781,0,0,1,.781-.781H3.906a.781.781,0,0,1,.781.781Zm14.453-4.687h.781a.391.391,0,0,0,.391-.391V16.8a.391.391,0,0,0-.391-.391h-.781a.391.391,0,0,0-.391.391v.781A.391.391,0,0,0,19.141,17.969Zm-6.25,3.125h.781a.391.391,0,0,0,.391-.391v-.781a.391.391,0,0,0-.391-.391h-.781a.391.391,0,0,0-.391.391V20.7A.391.391,0,0,0,12.891,21.094Zm0-3.125h.781a.391.391,0,0,0,.391-.391V16.8a.391.391,0,0,0-.391-.391h-.781a.391.391,0,0,0-.391.391v.781A.391.391,0,0,0,12.891,17.969ZM23.438,7.956V5.334a1.562,1.562,0,0,0-.458-1.1L19.208.458A1.563,1.563,0,0,0,18.1,0H10.156A2.344,2.344,0,0,0,7.813,2.344V22.656A2.344,2.344,0,0,0,10.156,25h12.5A2.344,2.344,0,0,0,25,22.656v-12.5a2.337,2.337,0,0,0-1.563-2.2ZM18.75,2.209l2.478,2.478H18.75Zm-9.375.134a.781.781,0,0,1,.781-.781h7.031V4.687A1.562,1.562,0,0,0,18.75,6.25h3.125V9.375H9.375ZM23.438,22.656a.781.781,0,0,1-.781.781h-12.5a.781.781,0,0,1-.781-.781V10.937H23.438Zm-7.422-1.562H16.8a.391.391,0,0,0,.391-.391v-.781a.391.391,0,0,0-.391-.391h-.781a.391.391,0,0,0-.391.391V20.7A.391.391,0,0,0,16.016,21.094Zm0-3.125H16.8a.391.391,0,0,0,.391-.391V16.8a.391.391,0,0,0-.391-.391h-.781a.391.391,0,0,0-.391.391v.781A.391.391,0,0,0,16.016,17.969Zm0-3.125H16.8a.391.391,0,0,0,.391-.391v-.781a.391.391,0,0,0-.391-.391h-.781a.391.391,0,0,0-.391.391v.781A.391.391,0,0,0,16.016,14.844Zm-3.125,0h.781a.391.391,0,0,0,.391-.391v-.781a.391.391,0,0,0-.391-.391h-.781a.391.391,0,0,0-.391.391v.781A.391.391,0,0,0,12.891,14.844Z" fill="#fff"/>
</svg>
