<svg xmlns="http://www.w3.org/2000/svg" width="25" height="25" viewBox="0 0 25 25" >
  <path fill="#fff"  d="M15.512,15.006,6.341,19.24a1.857,1.857,0,0,0-1.054,2.119A1.832,1.832,0,0,0,7.1,22.823h3.073v3.072a1.83,1.83,0,0,0,1.463,1.818,2,2,0,0,0,.425.047,1.856,1.856,0,0,0,1.695-1.1l4.233-9.168.013-.028a1.906,1.906,0,0,0-2.495-2.453ZM12.3,25.977a.247.247,0,0,1-.308.16.229.229,0,0,1-.2-.242V21.21H7.105a.229.229,0,0,1-.242-.2A.25.25,0,0,1,7.02,20.7l9.139-4.22a.189.189,0,0,1,.076-.015.309.309,0,0,1,.2.1.272.272,0,0,1,.085.265ZM12.5,8A12.5,12.5,0,1,0,25,20.5,12.5,12.5,0,0,0,12.5,8Zm0,23.387A10.887,10.887,0,1,1,23.387,20.5,10.9,10.9,0,0,1,12.5,31.387Z" transform="translate(0 -8)" fill="#4c4e56"/>
</svg>
