<svg xmlns="http://www.w3.org/2000/svg" width="169.187" height="382.765" viewBox="0 0 169.187 382.765">
  <g id="R_Est_1991_PMS_7502U_85_" data-name="R_Est_1991_PMS_7502U[85]" transform="translate(-179.553 -36.18)">
    <g id="Group_12" data-name="Group 12" transform="translate(68.4 149.224)">
      <g id="Group_7" data-name="Group 7" transform="translate(115.025)">
        <g id="Group_6" data-name="Group 6">
          <path id="Path_35" data-name="Path 35" d="M130.6,286.145,143.855,264.4V155.233L130.6,133.489V132h76.849c14.149,0,25.914,1.638,35.744,4.915q14.521,4.915,21.893,13.851a32.733,32.733,0,0,1,7.3,21c0,13.255-5.064,23.382-15.34,30.382-10.127,7-23.084,11.468-38.722,13.255v.745c6.851,1.936,15.489,3.276,25.914,4.319l28.893,47.36,18.765,18.468v1.638H234.108l-33.361-70.743c-.894,0-2.234.149-3.872.149H193v-6.4h5.213c10.127,0,17.425-3.425,22.042-10.276s6.851-16.085,6.851-27.85c0-11.319-2.532-19.957-7.447-25.765s-13.4-8.787-25.467-8.787H186.3V264.549l13.106,21.744v1.787H130.749v-1.936Z" transform="translate(-130.6 -132)"/>
        </g>
      </g>
      <g id="Group_9" data-name="Group 9" transform="translate(156.949 -113.044)">
        <g id="Group_8" data-name="Group 8">
          <path id="Path_36" data-name="Path 36" d="M56.719,173.8c0,1.043-.149,2.085-.149,3.128a22.218,22.218,0,0,1-.3,3.128H55.229l-1.638-4.17h-8.34v10.127h6.255L53,183.183h.894a67.156,67.156,0,0,1,0,7.744H53l-1.489-2.979H45.251v10.723h8.936l1.936-4.617h.894c.149,1.043.3,2.085.447,3.276a12.069,12.069,0,0,1,0,3.276H38.549v-1.191a9.625,9.625,0,0,1,3.128-.894V175.885c-.447-.149-1.043-.3-1.638-.447a7.259,7.259,0,0,1-1.638-.6V173.8Z" transform="translate(-38.4 -173.502)"/>
          <path id="Path_37" data-name="Path 37" d="M58.925,198.025a3.243,3.243,0,0,0,1.191.745,7.256,7.256,0,0,0,2.234.3,10.134,10.134,0,0,0,2.234-.3,5.018,5.018,0,0,0,1.787-.894,5.831,5.831,0,0,0,1.191-1.489,4.757,4.757,0,0,0,.447-2.085,3.5,3.5,0,0,0-.894-2.532,5.924,5.924,0,0,0-2.383-1.787c-.894-.6-1.936-1.043-2.979-1.638a19.722,19.722,0,0,1-2.979-1.787,12.942,12.942,0,0,1-2.383-2.532A7.255,7.255,0,0,1,55.5,180.3a5.67,5.67,0,0,1,.6-2.83,7.243,7.243,0,0,1,1.638-2.085,6.864,6.864,0,0,1,2.532-1.34,11.615,11.615,0,0,1,3.277-.447,39.349,39.349,0,0,1,4.319.3,18.5,18.5,0,0,1,2.979.894,5.588,5.588,0,0,1-.149,1.489,7.475,7.475,0,0,1-.3,1.787c-.149.6-.149,1.191-.3,1.787s-.149,1.043-.3,1.489H68.755l-1.489-5.213a15.446,15.446,0,0,0-1.787-.447,11.27,11.27,0,0,0-2.234-.149,4.136,4.136,0,0,0-3.425,6.7,10.4,10.4,0,0,0,2.383,1.936,30,30,0,0,0,3.128,1.638l3.128,1.787a12.035,12.035,0,0,1,2.383,2.383,6.352,6.352,0,0,1,.894,3.574,6.908,6.908,0,0,1-.6,3.128,7.169,7.169,0,0,1-1.787,2.383,7.988,7.988,0,0,1-2.979,1.489,15.092,15.092,0,0,1-3.872.6,13.18,13.18,0,0,1-4.319-.6,7.635,7.635,0,0,1-2.681-1.191,7.308,7.308,0,0,1,.149-1.638,10.249,10.249,0,0,1,.3-1.936c.149-.745.149-1.34.3-1.936s.149-1.191.3-1.638h1.043Z" transform="translate(-30.033 -173.6)"/>
          <path id="Path_38" data-name="Path 38" d="M86.031,200.657H75.308v-1.191c.6-.149,1.191-.447,1.638-.6l1.787-.447V175.636H72.925l-2.085,5.51h-.894a6.137,6.137,0,0,1-.149-1.787c0-.6-.149-1.34-.149-1.936a7.868,7.868,0,0,0-.149-1.936V173.7H91.691v1.787a8.491,8.491,0,0,1-.149,1.936c0,.745-.149,1.34-.149,1.936s-.149,1.191-.149,1.787H90.2l-2.085-5.51H82.308v22.787c.6.149,1.34.3,1.787.447a5.336,5.336,0,0,1,1.638.6v1.191Z" transform="translate(-23.182 -173.551)"/>
          <path id="Path_39" data-name="Path 39" d="M86.8,191.132a2.466,2.466,0,0,1,.745-1.787,2.573,2.573,0,0,1,1.936-.745,2.831,2.831,0,0,1,1.936.745,2.517,2.517,0,0,1,0,3.574,2.831,2.831,0,0,1-1.936.745,3.137,3.137,0,0,1-1.936-.745A2.466,2.466,0,0,1,86.8,191.132Z" transform="translate(-14.717 -166.26)"/>
        </g>
      </g>
      <g id="Group_11" data-name="Group 11" transform="translate(155.46 241.573)">
        <g id="Group_10" data-name="Group 10">
          <path id="Path_40" data-name="Path 40" d="M275.015,200.8h-11.17v-1.191a10.336,10.336,0,0,1,1.936-.745c.6-.149,1.34-.447,1.936-.6V179.506l.149-2.234a12.406,12.406,0,0,1-2.234.6,12.038,12.038,0,0,1-2.383.149l-.149-.894a36.387,36.387,0,0,0,3.574-1.489A16.91,16.91,0,0,0,270.1,173.4h.894v24.872a9.635,9.635,0,0,1,1.936.6,10.341,10.341,0,0,1,1.936.745V200.8Z" transform="translate(-263.1 -173.4)"/>
          <path id="Path_41" data-name="Path 41" d="M276.4,182.089a8.738,8.738,0,0,1,.6-3.425,6.232,6.232,0,0,1,1.638-2.681,8.452,8.452,0,0,1,2.681-1.787,9.307,9.307,0,0,1,3.723-.6,9.961,9.961,0,0,1,3.872.745,7.278,7.278,0,0,1,2.681,2.085,9.654,9.654,0,0,1,1.638,3.276,19.243,19.243,0,0,1,.447,4.319,18.344,18.344,0,0,1-1.043,6.553,20.4,20.4,0,0,1-2.83,5.362,14.179,14.179,0,0,1-4.17,3.723,16.657,16.657,0,0,1-5.213,1.787l-.745-1.043a16.479,16.479,0,0,0,4.021-1.787,13.44,13.44,0,0,0,2.979-2.83,10.4,10.4,0,0,0,1.936-3.574,19,19,0,0,0,1.043-4.17,6.713,6.713,0,0,1-2.085,1.489,6.786,6.786,0,0,1-3.277.6,9.9,9.9,0,0,1-3.128-.447,7.125,7.125,0,0,1-2.532-1.489A6.805,6.805,0,0,1,277,185.812,12.038,12.038,0,0,1,276.4,182.089Zm3.723-.149a11.5,11.5,0,0,0,.3,2.234,8.025,8.025,0,0,0,1.043,1.936,3.641,3.641,0,0,0,1.638,1.34,5.257,5.257,0,0,0,2.085.447,5.907,5.907,0,0,0,2.979-.6,4.735,4.735,0,0,0,1.787-1.638c0-.3.149-.745.149-1.191v-1.191a20.342,20.342,0,0,0-.3-2.83,7.331,7.331,0,0,0-.894-2.532,6.683,6.683,0,0,0-1.638-1.936,3.5,3.5,0,0,0-2.383-.745,4.246,4.246,0,0,0-3.574,1.787A9.207,9.207,0,0,0,280.123,181.94Z" transform="translate(-256.592 -173.302)"/>
          <path id="Path_42" data-name="Path 42" d="M291.4,182.089a8.738,8.738,0,0,1,.6-3.425,8.106,8.106,0,0,1,1.638-2.681,8.452,8.452,0,0,1,2.681-1.787,9.307,9.307,0,0,1,3.723-.6,9.961,9.961,0,0,1,3.872.745,7.278,7.278,0,0,1,2.681,2.085,9.653,9.653,0,0,1,1.638,3.276,19.241,19.241,0,0,1,.447,4.319,18.344,18.344,0,0,1-1.043,6.553,20.4,20.4,0,0,1-2.83,5.362,14.178,14.178,0,0,1-4.17,3.723,16.656,16.656,0,0,1-5.213,1.787l-.745-1.043a16.478,16.478,0,0,0,4.021-1.787,13.441,13.441,0,0,0,2.979-2.83,10.4,10.4,0,0,0,1.936-3.574,19.009,19.009,0,0,0,1.043-4.17,6.713,6.713,0,0,1-2.085,1.489,6.785,6.785,0,0,1-3.276.6,9.9,9.9,0,0,1-3.128-.447,7.125,7.125,0,0,1-2.532-1.489A6.806,6.806,0,0,1,292,185.812,12.038,12.038,0,0,1,291.4,182.089Zm3.723-.149a11.5,11.5,0,0,0,.3,2.234,8.023,8.023,0,0,0,1.043,1.936,3.641,3.641,0,0,0,1.638,1.34,4.757,4.757,0,0,0,2.085.447,5.907,5.907,0,0,0,2.979-.6,4.735,4.735,0,0,0,1.787-1.638c0-.3.149-.745.149-1.191v-1.191a20.356,20.356,0,0,0-.3-2.83,7.332,7.332,0,0,0-.894-2.532,6.682,6.682,0,0,0-1.638-1.936,3.5,3.5,0,0,0-2.383-.745,4.246,4.246,0,0,0-3.574,1.787A8.032,8.032,0,0,0,295.123,181.94Z" transform="translate(-249.252 -173.302)"/>
          <path id="Path_43" data-name="Path 43" d="M320.015,200.8h-11.17v-1.191a10.339,10.339,0,0,1,1.936-.745c.6-.149,1.34-.447,1.936-.6V179.506l.149-2.234a12.405,12.405,0,0,1-2.234.6,12.038,12.038,0,0,1-2.383.149l-.149-.894a36.393,36.393,0,0,0,3.574-1.489A16.908,16.908,0,0,0,315.1,173.4h.894v24.872a9.633,9.633,0,0,1,1.936.6,10.339,10.339,0,0,1,1.936.745V200.8Z" transform="translate(-241.081 -173.4)"/>
        </g>
      </g>
    </g>
    <rect id="Rectangle_3" data-name="Rectangle 3" width="169.187" height="7.149" transform="translate(179.553 96.8)"/>
    <rect id="Rectangle_4" data-name="Rectangle 4" width="169.187" height="7.149" transform="translate(179.553 350.431)"/>
  </g>
</svg>
