<svg xmlns="http://www.w3.org/2000/svg" width="25" height="25" viewBox="0 0 25 25">
  <path id="phone-alt" d="M24.077,17.158l-5.293-2.271A1.531,1.531,0,0,0,17,15.322l-2.153,2.632a17.09,17.09,0,0,1-7.793-7.793L9.687,8.008a1.531,1.531,0,0,0,.435-1.782L7.851.928A1.53,1.53,0,0,0,6.1.044L1.181,1.182A1.516,1.516,0,0,0,0,2.666,22.334,22.334,0,0,0,22.338,25.005a1.525,1.525,0,0,0,1.49-1.187L24.961,18.9a1.524,1.524,0,0,0-.884-1.743Zm-1.768,6.284A20.765,20.765,0,0,1,1.567,2.7L6.431,1.577,8.677,6.821,5.122,9.727A18.868,18.868,0,0,0,15.283,19.888l2.905-3.555,5.244,2.246Z" transform="translate(0 -0.005)" fill="#f4f6ff"/>
</svg>
