<svg xmlns="http://www.w3.org/2000/svg" width="54.8" height="40.801" viewBox="0 0 54.8 40.801">
  <g id="Group_6" data-name="Group 6" transform="translate(-324.6 -489)">
    <g id="Group_5" data-name="Group 5">
      <g id="Group_4" data-name="Group 4">
        <g id="Group_3" data-name="Group 3">
          <g id="Group_2" data-name="Group 2">
            <g id="Group_1" data-name="Group 1">
              <path id="Path_1" data-name="Path 1" d="M36,19.6H13a.4.4,0,0,0-.4.4V43a.4.4,0,0,0,.4.4H26.6V45A9.61,9.61,0,0,1,17,54.6H13a.4.4,0,0,0-.4.4v5a.4.4,0,0,0,.4.4h6A17.42,17.42,0,0,0,36.4,43V20A.4.4,0,0,0,36,19.6ZM35.6,43A16.619,16.619,0,0,1,19,59.6H13.4V55.4H17A10.412,10.412,0,0,0,27.4,45V43a.4.4,0,0,0-.4-.4H13.4V20.4H35.6V43Z" transform="translate(312 469.4)" fill="#fff"/>
              <path id="Path_2" data-name="Path 2" d="M67,19.6H44a.4.4,0,0,0-.4.4V43a.4.4,0,0,0,.4.4H57.6V45A9.61,9.61,0,0,1,48,54.6H44a.4.4,0,0,0-.4.4v5a.4.4,0,0,0,.4.4h6A17.42,17.42,0,0,0,67.4,43V20A.4.4,0,0,0,67,19.6ZM66.6,43A16.619,16.619,0,0,1,50,59.6H44.4V55.4H48A10.412,10.412,0,0,0,58.4,45V43a.4.4,0,0,0-.4-.4H44.4V20.4H66.6Z" transform="translate(312 469.4)" fill="#fff"/>
            </g>
          </g>
        </g>
      </g>
    </g>
  </g>
</svg>
