<svg xmlns="http://www.w3.org/2000/svg" width="162.69" height="157.08" viewBox="0 0 162.69 157.08">
  <g id="Group_7" data-name="Group 7" transform="translate(0.894 0.5)">
    <g id="Group_6" data-name="Group 6">
      <path id="Path_35" data-name="Path 35" d="M130.6,286.145,143.855,264.4V155.233L130.6,133.489V132h76.849c14.149,0,25.914,1.638,35.744,4.915q14.521,4.915,21.893,13.851a32.733,32.733,0,0,1,7.3,21c0,13.255-5.064,23.382-15.34,30.382-10.127,7-23.084,11.468-38.722,13.255v.745c6.851,1.936,15.489,3.276,25.914,4.319l28.893,47.36L291.9,286.295v1.638H234.108L200.747,217.19c-.894,0-2.234.149-3.872.149H193v-6.4h5.213c10.127,0,17.425-3.425,22.042-10.276s6.851-16.085,6.851-27.85c0-11.319-2.532-19.957-7.447-25.765s-13.4-8.787-25.467-8.787H186.3V264.549l13.106,21.744v1.787H130.749v-1.936Z" transform="translate(-130.6 -132)" fill="#fff" />
    </g>
  </g>
</svg>
