<svg xmlns="http://www.w3.org/2000/svg" width="104.882" height="237.285" viewBox="0 0 104.882 237.285">
  <g id="R_Est_1991_PMS_7502U_85_" data-name="R_Est_1991_PMS_7502U[85]" transform="translate(-179.553 -36.179)">
    <g id="Group_12" data-name="Group 12" transform="translate(181.953 36.18)">
      <g id="Group_7" data-name="Group 7" transform="translate(0 70.079)">
        <g id="Group_6" data-name="Group 6">
          <path id="Path_35" data-name="Path 35" d="M130.6,227.557l8.217-13.48V146.4L130.6,132.92V132h47.64c8.771,0,16.065,1.016,22.158,3.047q9,3.047,13.572,8.586a20.292,20.292,0,0,1,4.524,13.018c0,8.217-3.139,14.5-9.51,18.835-6.278,4.339-14.311,7.109-24,8.217v.462a96.364,96.364,0,0,0,16.065,2.677L218.96,216.2l11.633,11.448v1.016H194.767l-20.681-43.855c-.554,0-1.385.092-2.4.092h-2.4v-3.97h3.231c6.278,0,10.8-2.124,13.664-6.371s4.247-9.971,4.247-17.265c0-7.017-1.57-12.372-4.616-15.972s-8.309-5.447-15.788-5.447H165.13V214.17l8.125,13.48v1.108H130.692v-1.2Z" transform="translate(-130.6 -132)" fill="#ccc"/>
        </g>
      </g>
      <g id="Group_9" data-name="Group 9" transform="translate(25.99)">
        <g id="Group_8" data-name="Group 8">
          <path id="Path_36" data-name="Path 36" d="M49.756,173.8c0,.646-.092,1.293-.092,1.939a13.774,13.774,0,0,1-.185,1.939h-.646l-1.016-2.585h-5.17v6.278h3.878l.923-1.754H48a41.632,41.632,0,0,1,0,4.8h-.554l-.923-1.847H42.647v6.647h5.54l1.2-2.862h.554c.092.646.185,1.293.277,2.031a7.482,7.482,0,0,1,0,2.031H38.492v-.739a5.967,5.967,0,0,1,1.939-.554V175.093c-.277-.092-.646-.185-1.016-.277a4.5,4.5,0,0,1-1.016-.369V173.8Z" transform="translate(-38.4 -173.615)" fill="#ccc"/>
          <path id="Path_37" data-name="Path 37" d="M57.624,188.741a2.011,2.011,0,0,0,.739.462,4.5,4.5,0,0,0,1.385.185,6.281,6.281,0,0,0,1.385-.185,3.111,3.111,0,0,0,1.108-.554,3.613,3.613,0,0,0,.739-.923,2.949,2.949,0,0,0,.277-1.293,2.172,2.172,0,0,0-.554-1.57,3.672,3.672,0,0,0-1.477-1.108c-.554-.369-1.2-.646-1.847-1.016a12.226,12.226,0,0,1-1.847-1.108,8.023,8.023,0,0,1-1.477-1.57,4.5,4.5,0,0,1-.554-2.308A3.515,3.515,0,0,1,55.869,176a4.49,4.49,0,0,1,1.016-1.293,4.255,4.255,0,0,1,1.57-.831,7.2,7.2,0,0,1,2.031-.277,24.389,24.389,0,0,1,2.677.185,11.47,11.47,0,0,1,1.847.554,3.464,3.464,0,0,1-.092.923,4.634,4.634,0,0,1-.185,1.108c-.092.369-.092.739-.185,1.108s-.092.646-.185.923h-.646l-.923-3.231a9.58,9.58,0,0,0-1.108-.277A6.986,6.986,0,0,0,60.3,174.8a2.564,2.564,0,0,0-2.123,4.155,6.449,6.449,0,0,0,1.477,1.2,18.609,18.609,0,0,0,1.939,1.016l1.939,1.108a7.46,7.46,0,0,1,1.477,1.477,3.938,3.938,0,0,1,.554,2.216,4.282,4.282,0,0,1-.369,1.939,4.444,4.444,0,0,1-1.108,1.477,4.952,4.952,0,0,1-1.847.923,9.358,9.358,0,0,1-2.4.369,8.171,8.171,0,0,1-2.677-.369,4.733,4.733,0,0,1-1.662-.739,4.53,4.53,0,0,1,.092-1.016,6.353,6.353,0,0,1,.185-1.2c.092-.462.092-.831.185-1.2s.092-.739.185-1.016h.646Z" transform="translate(-39.712 -173.6)" fill="#ccc"/>
          <path id="Path_38" data-name="Path 38" d="M79.748,190.411H73.1v-.739c.369-.092.739-.277,1.016-.369l1.108-.277V174.9h-3.6l-1.293,3.416h-.554a3.8,3.8,0,0,1-.092-1.108c0-.369-.092-.831-.092-1.2a4.878,4.878,0,0,0-.092-1.2V173.7H83.257v1.108a5.265,5.265,0,0,1-.092,1.2c0,.462-.092.831-.092,1.2s-.092.739-.092,1.108h-.646L81.041,174.9h-3.6v14.126c.369.092.831.185,1.108.277a3.308,3.308,0,0,1,1.016.369v.739Z" transform="translate(-40.787 -173.608)" fill="#ccc"/>
          <path id="Path_39" data-name="Path 39" d="M86.8,190.17a1.529,1.529,0,0,1,.462-1.108,1.6,1.6,0,0,1,1.2-.462,1.755,1.755,0,0,1,1.2.462,1.56,1.56,0,0,1,0,2.216,1.755,1.755,0,0,1-1.2.462,1.945,1.945,0,0,1-1.2-.462A1.529,1.529,0,0,1,86.8,190.17Z" transform="translate(-42.114 -174.751)" fill="#ccc"/>
        </g>
      </g>
      <g id="Group_11" data-name="Group 11" transform="translate(25.067 219.834)">
        <g id="Group_10" data-name="Group 10">
          <path id="Path_40" data-name="Path 40" d="M270.486,190.388h-6.924v-.739a6.408,6.408,0,0,1,1.2-.462c.369-.092.831-.277,1.2-.369V177.185l.092-1.385a7.691,7.691,0,0,1-1.385.369,7.463,7.463,0,0,1-1.477.092l-.092-.554a22.564,22.564,0,0,0,2.216-.923,10.485,10.485,0,0,0,2.123-1.385h.554v15.418a5.973,5.973,0,0,1,1.2.369,6.409,6.409,0,0,1,1.2.462v.739Z" transform="translate(-263.1 -173.4)" fill="#ccc"/>
          <path id="Path_41" data-name="Path 41" d="M276.4,178.863a5.417,5.417,0,0,1,.369-2.124,3.863,3.863,0,0,1,1.016-1.662,5.239,5.239,0,0,1,1.662-1.108,5.77,5.77,0,0,1,2.308-.369,6.175,6.175,0,0,1,2.4.462,4.512,4.512,0,0,1,1.662,1.293,5.985,5.985,0,0,1,1.016,2.031,11.932,11.932,0,0,1,.277,2.677,11.372,11.372,0,0,1-.646,4.062,12.647,12.647,0,0,1-1.754,3.324,8.79,8.79,0,0,1-2.585,2.308,10.326,10.326,0,0,1-3.231,1.108l-.462-.646a10.217,10.217,0,0,0,2.493-1.108,8.331,8.331,0,0,0,1.847-1.754,6.447,6.447,0,0,0,1.2-2.216,11.78,11.78,0,0,0,.646-2.585,4.162,4.162,0,0,1-1.293.923,4.207,4.207,0,0,1-2.031.369,6.138,6.138,0,0,1-1.939-.277,4.418,4.418,0,0,1-1.57-.923,4.219,4.219,0,0,1-1.016-1.477,7.463,7.463,0,0,1-.369-2.308Zm2.308-.092a7.13,7.13,0,0,0,.185,1.385,4.974,4.974,0,0,0,.646,1.2,2.257,2.257,0,0,0,1.016.831,3.259,3.259,0,0,0,1.293.277,3.662,3.662,0,0,0,1.847-.369,2.935,2.935,0,0,0,1.108-1.016c0-.185.092-.462.092-.739v-.74a12.6,12.6,0,0,0-.185-1.754,4.543,4.543,0,0,0-.554-1.57,4.143,4.143,0,0,0-1.016-1.2,2.172,2.172,0,0,0-1.477-.462,2.632,2.632,0,0,0-2.216,1.108,5.709,5.709,0,0,0-.739,3.048Z" transform="translate(-264.121 -173.415)" fill="#ccc"/>
          <path id="Path_42" data-name="Path 42" d="M291.4,178.863a5.418,5.418,0,0,1,.369-2.124,5.025,5.025,0,0,1,1.016-1.662,5.24,5.24,0,0,1,1.662-1.108,5.77,5.77,0,0,1,2.308-.369,6.175,6.175,0,0,1,2.4.462,4.512,4.512,0,0,1,1.662,1.293,5.984,5.984,0,0,1,1.016,2.031,11.931,11.931,0,0,1,.277,2.677,11.374,11.374,0,0,1-.646,4.062,12.644,12.644,0,0,1-1.754,3.324,8.789,8.789,0,0,1-2.585,2.308,10.326,10.326,0,0,1-3.231,1.108l-.462-.646a10.215,10.215,0,0,0,2.493-1.108,8.334,8.334,0,0,0,1.847-1.754,6.448,6.448,0,0,0,1.2-2.216,11.785,11.785,0,0,0,.646-2.585,4.164,4.164,0,0,1-1.293.923,4.206,4.206,0,0,1-2.031.369,6.138,6.138,0,0,1-1.939-.277,4.417,4.417,0,0,1-1.57-.923,4.22,4.22,0,0,1-1.016-1.477,7.462,7.462,0,0,1-.369-2.308Zm2.308-.092a7.125,7.125,0,0,0,.185,1.385,4.975,4.975,0,0,0,.646,1.2,2.257,2.257,0,0,0,1.016.831,2.949,2.949,0,0,0,1.293.277,3.662,3.662,0,0,0,1.846-.369,2.935,2.935,0,0,0,1.108-1.016c0-.185.092-.462.092-.739v-.74a12.614,12.614,0,0,0-.185-1.754,4.545,4.545,0,0,0-.554-1.57,4.142,4.142,0,0,0-1.016-1.2,2.172,2.172,0,0,0-1.477-.462,2.632,2.632,0,0,0-2.216,1.108,4.979,4.979,0,0,0-.738,3.048Z" transform="translate(-265.272 -173.415)" fill="#ccc"/>
          <path id="Path_43" data-name="Path 43" d="M315.486,190.388h-6.924v-.739a6.409,6.409,0,0,1,1.2-.462c.369-.092.831-.277,1.2-.369V177.185l.092-1.385a7.689,7.689,0,0,1-1.385.369,7.462,7.462,0,0,1-1.477.092l-.092-.554a22.557,22.557,0,0,0,2.216-.923,10.48,10.48,0,0,0,2.123-1.385h.554v15.418a5.971,5.971,0,0,1,1.2.369,6.412,6.412,0,0,1,1.2.462v.739Z" transform="translate(-266.553 -173.4)" fill="#ccc"/>
        </g>
      </g>
    </g>
    <rect id="Rectangle_3" data-name="Rectangle 3" width="104.882" height="4.432" transform="translate(179.553 73.76)" fill="#ccc"/>
    <rect id="Rectangle_4" data-name="Rectangle 4" width="104.882" height="4.432" transform="translate(179.553 230.991)" fill="#ccc"/>
  </g>
</svg>
