<svg id="Group_7" data-name="Group 7" xmlns="http://www.w3.org/2000/svg" width="13.062" height="12.639" viewBox="0 0 13.062 12.639">
  <g id="Group_6" data-name="Group 6">
    <path id="Path_35" fill="#c7ae86" data-name="Path 35" d="M130.6,144.483l1.073-1.761v-8.84l-1.073-1.761V132h6.223a9.164,9.164,0,0,1,2.895.4,3.816,3.816,0,0,1,1.773,1.122,2.651,2.651,0,0,1,.591,1.7,2.789,2.789,0,0,1-1.242,2.46,6.806,6.806,0,0,1-3.136,1.073v.06a12.593,12.593,0,0,0,2.1.35l2.34,3.835,1.52,1.5v.133h-4.68l-2.7-5.729c-.072,0-.181.012-.314.012h-.314v-.518h.422a1.993,1.993,0,0,0,1.785-.832,3.976,3.976,0,0,0,.555-2.255,3.165,3.165,0,0,0-.6-2.086,2.581,2.581,0,0,0-2.062-.712h-.639v10.227l1.061,1.761v.145h-5.56v-.157Z" transform="translate(-130.6 -132)"/>
  </g>
</svg>
