<svg xmlns="http://www.w3.org/2000/svg" width="10.339" height="10.01" viewBox="0 0 10.339 10.01">
  <g id="Group_6" data-name="Group 6" transform="translate(0 0.002)">
    <path id="Path_35" data-name="Path 35" d="M130.6,141.879l.849-1.394v-7L130.6,132.1V132h4.925a7.252,7.252,0,0,1,2.291.317,3.02,3.02,0,0,1,1.4.888,2.1,2.1,0,0,1,.468,1.345,2.207,2.207,0,0,1-.983,1.947,5.386,5.386,0,0,1-2.482.849v.047a9.966,9.966,0,0,0,1.662.277l1.852,3.035,1.2,1.187V142h-3.7l-2.137-4.534c-.057,0-.143.009-.249.009H134.6v-.41h.334a1.577,1.577,0,0,0,1.413-.658,3.146,3.146,0,0,0,.439-1.785,2.5,2.5,0,0,0-.475-1.651,2.043,2.043,0,0,0-1.632-.563h-.506V140.5l.84,1.394v.115h-4.4v-.124Z" transform="translate(-130.6 -132)" fill="#e8e8e8"/>
  </g>
</svg>
