<svg xmlns="http://www.w3.org/2000/svg" width="113.411" height="109.375" viewBox="0 0 113.411 109.375">
  <g id="Group_6" data-name="Group 6" transform="translate(1.508 1.003)">
    <path id="Path_35" data-name="Path 35" d="M130.6,237.989l9.109-14.949V147.995l-9.109-14.95v-1.027h52.828a77.8,77.8,0,0,1,24.576,3.4,32.394,32.394,0,0,1,15.051,9.525,22.5,22.5,0,0,1,5.017,14.432,23.677,23.677,0,0,1-10.544,20.884,57.779,57.779,0,0,1-26.622,9.109v.509a106.9,106.9,0,0,0,17.827,2.971L228.6,225.4l12.9,12.734v1.129H201.774l-22.921-48.635c-.611,0-1.536.1-2.666.1h-2.666v-4.4H177.1a16.919,16.919,0,0,0,15.153-7.063,33.753,33.753,0,0,0,4.711-19.143,26.869,26.869,0,0,0-5.093-17.709,21.91,21.91,0,0,0-17.5-6.044h-5.425v86.819l9.007,14.949v1.231h-47.2V238.04Z" transform="translate(-130.6 -132)" fill="none" stroke="#fff" stroke-width="2"/>
  </g>
</svg>
