<?xml version="1.0" encoding="utf-8"?>
<!-- Generator: Adobe Illustrator 26.0.1, SVG Export Plug-In . SVG Version: 6.00 Build 0)  -->
<svg version="1.1" id="Layer_1" xmlns="http://www.w3.org/2000/svg" xmlns:xlink="http://www.w3.org/1999/xlink" x="0px" y="0px"
	 viewBox="0 0 720 720" style="enable-background:new 0 0 720 720;" xml:space="preserve">
<style type="text/css">
	.st0{clip-path:url(#SVGID_00000051364095348734621050000007135114052185061033_);}
	.st1{fill:none;stroke:#C7AE86;stroke-width:0.125;stroke-miterlimit:10;}
	.st2{clip-path:url(#SVGID_00000110472680439258776430000005238540433618068902_);}
	.st3{fill:none;stroke:#C7AE86;stroke-miterlimit:10;}
	.st4{fill:none;stroke:#000000;stroke-miterlimit:10;}
	.st5{fill:none;stroke:#939598;stroke-width:0.25;stroke-miterlimit:10;}
	.st6{fill:none;stroke:#939598;stroke-width:0.75;stroke-miterlimit:10;}
	.st7{fill:#FFFFFF;stroke:#939598;stroke-width:0.25;stroke-miterlimit:10;}
	.st8{fill:#FFFFFF;stroke:#939598;stroke-width:0.2494;stroke-miterlimit:10;}
	.st9{fill:#4D4E56;}
	.st10{fill:#C7AE86;}
	.st11{fill:#FFFFFF;}
</style>
<g>
	<path class="st3" d="M103.3,178.2c22.9,20.3,48.6,37.5,76.2,50.8c3.2,1.5,6.3,3,9.2,5.1c3.6,2.7,6.4,6.2,9.1,9.7
		c12.2,15.5,24.5,31.1,36.7,46.6c9.3,11.8,18.6,23.7,26.6,36.4c9.2,14.7,16.5,30.5,25.7,45.2c13.9,22.5,32,42.6,42,67.1
		s9.5,56.1-10.3,73.6c-5.1,4.5-11.3,8-15.1,13.7c-9.2,13.8,0.2,33.1-5.6,48.6c-4,10.8-14.5,17.6-21.4,26.8c-7.3,9.8-10.4,22-16,32.7
		c-6.9,13.2-17.9,24.2-31,31.3"/>
	<path class="st3" d="M131.4,133.8c20.6,2.9,40.9,7.7,60.6,14.3c6.5,2.2,13.1,4.6,18.6,8.7c5.6,4.2,9.8,9.9,14.3,15.3
		c13.5,16.1,30.3,29.3,49.1,38.7c10.3,5.1,21.2,9.2,30.3,16.1c19.5,14.8,28.2,40.4,46.8,56.3c1.9,1.6,4.1,3.2,6.6,3.5
		c4,0.4,7.5-2.8,9.8-6.2c7.4-11,7.7-25.2,7.8-38.5c0.1-16.6,0.1-33.2,0.2-49.8c0-2.1,0-4.2,1.1-6c1.1-1.9,3.1-3.1,5.1-4.1
		c6.9-3.8,15.5-7.6,22.3-3.6c8.4,5,8.9,19.2,18.3,21.9c5.9,1.7,12.1-2.7,14.6-8.3c2.5-5.6,2.2-11.9,1.9-18c-1-17.3-1.9-34.6-2.9-52
		c-0.3-5,1-11.9,6-12c1.7,0,3.3,0.8,4.9,1.4c9.5,3.5,20-3.6,25-12.5s6.4-19.2,10.1-28.6c3.9-9.9,10.4-18.9,18.7-25.6"/>
	<path class="st3" d="M532.4,78.1c-21.7,39.3-14.1,88.2-27.2,131.1c-8.4,27.6-25.2,51.9-38.1,77.7c-12.9,25.9-22.2,55.7-14.2,83.5
		c2.7,9.4,5.7,22.5-3.2,26.3c-5.8,2.5-12.1-1.6-17.5-4.9c-11.3-7-24.3-11.2-37.6-12.3c-5.6-0.5-12.6,0.6-14.4,5.9
		c-2.2,6.7,5.7,11.8,11.6,15.7c8.3,5.6,14.6,14.2,17.3,23.9c0.9,3.2,1.5,6.6,0.7,9.9c-0.9,3.8-3.5,6.9-5.9,10
		c-14.9,18.5-28.4,42.3-21,64.9c3,9.1,9.3,17.2,10.9,26.6c1.7,10.4-2.4,20.8-6.5,30.6c-9.8,23.3-19.6,46.7-29.4,70
		c-1.7,4.1-3.6,8.4-7,11.3c-6.6,5.6-17.8,4.8-22.5,12.1c-4.5,6.9-0.5,17.7-6.5,23.4"/>
	<path class="st3" d="M555.1,96.7c-14.1,17.1-11.7,41.9-11,64c1.4,46.6-8.4,93.4-28.4,135.5c-8.8,18.6-19.7,36.8-22.2,57.2
		c-1,8.5,0.3,17,3.9,24.8c2.2,4.8,5.9,8.7,9.4,12.6c2,2.2,3.8,4.5,5.4,7c1.3,1.9,5.1,5.4,2.7,7.7c-3.6,3.4-10.5,3.6-15.1,4.1
		c-8.2,1-17.4,0.7-23.8,6.9c-4.6,4.4-7.3,7-13.3,9c-6.2,2.1-12.8,2.6-17.5,7.6c-6,6.5-9.6,15.4-10.5,24.1
		c-1.7,15.1,2.6,30.1,4.7,45.1c1.7,12.2,7.4,58.9-8.5,64.7c-5.2,1.9-11-2.1-16.5-1c-8.4,1.7-10.7,13.3-13.6,20.1
		c-4.8,11.6-9.6,23.2-14.4,34.7c-9.8,23.7-19.7,47.5-29.5,71.2"/>
	<path class="st3" d="M423.4,678.7c-1.8-22-3-46.2,10.2-63.9c5.8-7.7,13.9-13.4,21.9-18.9c5.8-4.1,11.7-8.1,17.5-12.2
		c2.4-1.6,4.8-3.4,6.1-6c1.1-2.3,1.1-5,1.1-7.6c-0.7-25.9-5.3-55.2,11.4-75c3.2-3.7,7-7,9.4-11.2s3.1-10,0-13.8
		c-2.3-2.6-6-3.7-8.1-6.4c-4.5-5.8,0.8-14.1,6.6-18.6c12.6-9.7,28.1-14.6,43.3-19.3c26.8-8.3,53.9-16.7,82-17.9
		c3.2-0.1,7.7-1.6,7-4.7c-0.2-0.8-0.6-1.4-1.1-2c-15.8-20.5-47.8-16.1-71.1-27.5c-18-8.8-30.4-28.2-30.7-48.2
		c-0.5-27.9,19.9-52,24.2-79.5c1.2-8,1.2-16.5,4.9-23.7c5.2-10,16.8-15.4,22.2-25.3c5.6-10.1,3.6-22.7,6.9-33.8
		c3.4-11.2,12.6-20.6,23.8-24.1"/>
	<path class="st3" d="M623.2,171.6c-11.2,7.3-17.8,19.9-22.5,32.5c-4.6,12.6-7.8,25.8-14.5,37.5c-5.6,9.7-13.5,18.3-16.5,29
		c-2.7,9.7-1.1,19.9,0.8,29.8c2.6,13.2,6,26.9,15.5,36.4c11.3,11.2,28.3,13.7,44.1,15.4c3.6,0.4,7.4,0.8,10.6,2.5
		c4.6,2.4,7.4,7.1,11.3,10.5c6.2,5.4,14.6,7.3,22.3,10.2c7.7,2.8,15.7,7.5,18.2,15.3"/>
	<path class="st3" d="M687.8,428.4c-7.5,5.9-15.2,11.9-24.3,14.5c-10.8,3.1-22.3,1.2-33.6,1c-11.3-0.3-23.7,1.8-30.9,10.5
		c-4.6,5.6-6.7,13.5-13,17.1c-10.5,6-23.6-4.7-35.4-2.2c-9,1.9-14.7,11.1-16.9,20.1c-4,16.8,0.5,35.1-5.3,51.3
		c-4.9,13.7-16.7,24.5-19.4,38.8c-2.3,12.3,1.7,27.8-8.1,35.6c-4.4,3.5-10.4,4.2-14.8,7.7c-4,3.3-5.9,8.5-6.7,13.6
		c-1.6,10,0.6,20.5,6,29.1"/>
	<path class="st3" d="M546,631.8c2.4-17.8-6.5-37.4,2.4-53c6.9-11.9,22.7-17.8,26.4-31c1.6-5.8,0.7-12.6,4.5-17.2
		c6.5-7.6,18.6-2.1,28.5-2.3c16.3-0.4,26.9-17.3,41.7-24.4c12-5.8,26.1-4.8,39.4-3.6"/>
	<path class="st3" d="M165.2,106.8c4.7,13.7,18,23,32,27.2c13.9,4.1,28.7,3.9,43.2,4.5c14.5,0.6,29.5,2,42.3,8.9
		c8.3,4.5,15.6,11.2,24.7,13.6c13.5,3.5,29.1-4.9,33.5-18.2c1.3-4,1.8-8.5,4.5-11.8c2.5-3,6.3-4.5,9.1-7.2
		c9.1-8.9,2.3-24.7,6.6-36.7c2.9-8,10.5-13.6,13.2-21.6c1.7-5.1,1.2-10.6,2-15.8c0.8-5.3,3.4-10.9,8.4-12.6"/>
	<path class="st3" d="M217.7,73.6c15.8,13.4,37.2,20.1,57.9,18.2c9.6-0.9,19.4-3.6,28.7-1c1.8,0.5,3.6,1.2,5.4,1.4
		c7.5,0.7,13.3-7.9,12.5-15.4c-0.8-7.5-6-13.7-11.2-19.2c-5.2-5.5-10.8-11.1-13-18.3"/>
	<path class="st3" d="M87.6,199.3c15.2,11.8,30.4,23.5,45.6,35.3c2.3,1.8,4.6,3.6,6.1,6c3.4,5.6,2.3,13.6,7.1,18
		c5.3,4.8,13.6,2,20.7,2.8c11,1.2,18.6,11.3,23.8,21.1s9.8,20.7,19.2,26.4c4.7,2.9,10.4,4.3,14.1,8.4c2.1,2.3,3.2,5.3,4.1,8.3
		c2.2,7.2,3.1,14.8,2.8,22.4c-0.1,2.8-0.5,5.8,0.6,8.4c1.4,3.2,4.6,5.2,7.4,7.3c7.1,5.3,12.6,12.8,15.5,21.1c1.1,3.3,2.1,7,5,9
		c2.1,1.5,4.9,1.6,7.4,2.5c10.6,3.5,13,17.3,13.6,28.5c0.4,8.9,2.9,17.7,3.1,26.7c0.1,4.3,0.1,9.1-1.5,13.2c-2,5.2-6.8,7.4-3.3,13.5
		c1.4,2.5,3.5,4.4,5.2,6.7c4.8,6.6,5.1,16.7-0.8,22.3c-3.3,3.2-7,5.5-9.3,9.6c-1.4,2.5-5.6,10-5.8,12.4c-0.5,5,3.5,10.1,5.1,15.2
		c1.6,5,2.1,10.5,0,15.4c-4.8,11.5-20.6,13.3-29.1,22.4c-10.1,10.8-8.1,27.7-17.4,39.7c-8.9,11.5-22.5,19.4-37.1,20.6"/>
	<path class="st3" d="M46.5,271.8c4.7,4.2,11.2,6.4,17.5,5.9c11.9-0.9,26.7-13.1,37.5-2.6c8.4,8.2-1.7,22.7,5.7,29.1
		c5.7,4.9,21.6,1,28.2-0.2c12.2-2.1,25.9-5.8,37.4,0.6c7.9,4.4,12.9,13.4,12.5,22.5c-0.2,4.9-1.9,9.9-0.8,14.7
		c2,8.9,11.8,13,18.7,18.9c7.8,6.7,12.4,16,16.5,25.3c3.8,8.7,8.9,16.7,13.7,24.9c1.8,3.2,4,4,6.5,6.2c1.7,1.5,3.2,3.3,4.4,5.3
		c2.4,4.1,3.8,8.8,3.9,13.5c0.1,4-0.8,8-2.8,11.5c-2.8,4.9-7.4,8.9-9.1,14.2c-2.3,7.1,0.5,14-0.3,21.1c-0.4,3.7-2,7.5-5,9.8
		c-3,2.2-6.8,2.7-10.2,4.2c-3.4,1.5-6.6,5-5.5,8.5c0.6,1.8,2.1,3.1,3,4.8c3.5,6.3-4.8,14.9-8.8,18.8c-7.4,7.1-14.6,5.7-22.6,10.5
		c-4.2,2.5-5.7,8.2-4.6,13c1.6,7.6,7.6,13,11.2,19.6c12.6,22.5-6.2,51.5-31.7,49.7"/>
	<path class="st3" d="M115.8,555.8c1.3-4,6.6-4.9,10.8-4.5s9,1.2,12.3-1.5c3.1-2.6,3.3-7.3,2.2-11.2c-1.1-3.9-3.2-7.4-4-11.4
		c-1.7-9.2,5.7-19,15-19.8c7.9-0.7,17.1,3.7,23-1.5c3.7-3.3,4-8.7,4.9-13.6c2.5-13.4,12.6-21.1,17.8-33c4.1-9.5,3.3-20.2,2.3-30.5
		c-0.8-8.5-1.6-17-2.4-25.5c-0.8-8.7-1.7-17.7-6.6-24.9c-5.9-8.7-16.1-13.1-22.3-21.4c-5.1-6.9-0.5-19.8-6.1-24.4
		c-1.3-1.1-3.1-1.5-4.8-1.7c-26.7-4-44,32-70.1,14.2c-7.3-5-11.9-12.9-18.4-18.9s-16.6-10-23.9-5"/>
	<path class="st3" d="M43.8,389.3c5,8.6,15.4,13.7,25.3,12.4c11.5-1.6,23.5-10.7,33.3-4.6c6,3.7,8.2,12,14.5,15.3
		c6.3,3.3,30.3-6.9,29.4,5.6c-0.3,4.6-5,10.5-8.8,13c-6.1,4-13.5,5.5-19.9,9c-16.6,9.2-22.8,29.6-27.5,48c-3.2,12.7-6.4,25.3-9.7,38
		"/>
</g>
</svg>
