<svg xmlns="http://www.w3.org/2000/svg" xmlns:xlink="http://www.w3.org/1999/xlink" width="161.296" height="281.669" viewBox="0 0 161.296 281.669">
  <defs>
    <linearGradient id="linear-gradient" x1="0.5" x2="0.528" y2="1.86" gradientUnits="objectBoundingBox">
      <stop offset="0" stop-color="#fff"/>
      <stop offset="1" stop-color="#fff" stop-opacity="0"/>
    </linearGradient>
  </defs>
  <g id="Group_4" data-name="Group 4" transform="translate(-1418.5 -361)">
    <path id="Path_35" data-name="Path 35" d="M130.6,286.145,143.855,264.4V155.233L130.6,133.489V132h76.849c14.149,0,25.914,1.638,35.744,4.915q14.521,4.915,21.893,13.851a32.733,32.733,0,0,1,7.3,21c0,13.255-5.064,23.382-15.34,30.382-10.127,7-23.084,11.468-38.722,13.255v.745c6.851,1.936,15.489,3.276,25.914,4.319l28.893,47.36L291.9,286.295v1.638H234.108L200.747,217.19c-.894,0-2.234.149-3.872.149H193v-6.4h5.213c10.127,0,17.425-3.425,22.042-10.276s6.851-16.085,6.851-27.85c0-11.319-2.532-19.957-7.447-25.765s-13.4-8.787-25.467-8.787H186.3V264.549l13.106,21.744v1.787H130.749v-1.936Z" transform="translate(1287.9 291.5)" fill="url(#linear-gradient)"/>
    <g id="Group_3" data-name="Group 3" transform="translate(1469 361)">
      <g id="Group_2" data-name="Group 2" transform="translate(0)">
        <path id="Path_36" data-name="Path 36" d="M52.5,173.8c0,.8-.115,1.605-.115,2.408a17.106,17.106,0,0,1-.231,2.408h-.8L50.1,175.406H43.675v7.8h4.816l1.15-2.179h.688a51.708,51.708,0,0,1,0,5.962h-.688l-1.146-2.294h-4.82v8.256h6.88l1.491-3.555h.688c.115.8.231,1.605.344,2.522a9.292,9.292,0,0,1,0,2.522H38.515v-.917a7.41,7.41,0,0,1,2.408-.688V175.405c-.344-.115-.8-.231-1.261-.344A5.589,5.589,0,0,1,38.4,174.6v-.8Z" transform="translate(-38.401 -173.569)" fill="url(#linear-gradient)"/>
        <path id="Path_37" data-name="Path 37" d="M58.135,192.4a2.5,2.5,0,0,0,.917.574,5.587,5.587,0,0,0,1.72.231,7.8,7.8,0,0,0,1.72-.231,3.864,3.864,0,0,0,1.376-.688,4.489,4.489,0,0,0,.917-1.146,3.662,3.662,0,0,0,.344-1.605,2.7,2.7,0,0,0-.688-1.949,4.561,4.561,0,0,0-1.835-1.376c-.688-.462-1.491-.8-2.294-1.261a15.183,15.183,0,0,1-2.294-1.376,9.965,9.965,0,0,1-1.835-1.949,5.586,5.586,0,0,1-.686-2.869,4.366,4.366,0,0,1,.462-2.179,5.577,5.577,0,0,1,1.261-1.605,5.285,5.285,0,0,1,1.949-1.032,8.943,8.943,0,0,1,2.523-.344,30.3,30.3,0,0,1,3.325.231,14.244,14.244,0,0,1,2.294.688,4.3,4.3,0,0,1-.115,1.146,5.756,5.756,0,0,1-.231,1.376c-.115.462-.115.917-.231,1.376s-.115.8-.231,1.146h-.8l-1.146-4.014a11.885,11.885,0,0,0-1.376-.344,8.677,8.677,0,0,0-1.72-.115,3.184,3.184,0,0,0-2.637,5.159,8.007,8.007,0,0,0,1.835,1.491A23.094,23.094,0,0,0,63.068,183l2.408,1.376a9.266,9.266,0,0,1,1.835,1.835A4.891,4.891,0,0,1,68,188.962a5.319,5.319,0,0,1-.462,2.408,5.52,5.52,0,0,1-1.376,1.835,6.15,6.15,0,0,1-2.294,1.146,11.619,11.619,0,0,1-2.981.462,10.148,10.148,0,0,1-3.325-.462,5.879,5.879,0,0,1-2.064-.917,5.627,5.627,0,0,1,.115-1.261,7.891,7.891,0,0,1,.231-1.491c.115-.574.115-1.032.231-1.491s.115-.917.231-1.261h.8Z" transform="translate(-35.891 -173.598)" fill="url(#linear-gradient)"/>
        <path id="Path_38" data-name="Path 38" d="M82.227,194.455H73.972v-.917c.462-.115.917-.344,1.261-.462l1.376-.344V175.191H72.137l-1.605,4.242h-.688a4.725,4.725,0,0,1-.115-1.376c0-.462-.115-1.032-.115-1.491a6.058,6.058,0,0,0-.115-1.491V173.7H86.585v1.376a6.538,6.538,0,0,1-.115,1.491c0,.574-.115,1.032-.115,1.491s-.115.917-.115,1.376h-.8l-1.605-4.242H79.361v17.544c.462.115,1.032.231,1.376.344a4.109,4.109,0,0,1,1.261.462v.917Z" transform="translate(-33.839 -173.583)" fill="url(#linear-gradient)"/>
        <path id="Path_39" data-name="Path 39" d="M86.8,190.549a1.9,1.9,0,0,1,.574-1.376,1.981,1.981,0,0,1,1.491-.574,2.18,2.18,0,0,1,1.491.574,1.938,1.938,0,0,1,0,2.752,2.18,2.18,0,0,1-1.491.574,2.415,2.415,0,0,1-1.491-.574,1.9,1.9,0,0,1-.574-1.376Z" transform="translate(-31.302 -171.397)" fill="url(#linear-gradient)"/>
      </g>
    </g>
    <g id="Group_1" data-name="Group 1" transform="translate(1468 621)">
      <path id="Path_40" data-name="Path 40" d="M272.274,194.5h-8.6v-.917a7.959,7.959,0,0,1,1.491-.574c.462-.115,1.032-.344,1.491-.462V178.1l.115-1.72a9.553,9.553,0,0,1-1.72.462,9.269,9.269,0,0,1-1.835.115l-.115-.688a28.023,28.023,0,0,0,2.752-1.146,13.02,13.02,0,0,0,2.638-1.723h.688v19.15a7.417,7.417,0,0,1,1.491.462,7.96,7.96,0,0,1,1.491.574v.911Z" transform="translate(-263.1 -173.4)" fill="url(#linear-gradient)"/>
      <path id="Path_41" data-name="Path 41" d="M276.4,180.133a6.728,6.728,0,0,1,.462-2.637,4.8,4.8,0,0,1,1.261-2.064,6.507,6.507,0,0,1,2.064-1.376,7.166,7.166,0,0,1,2.866-.462,7.67,7.67,0,0,1,2.981.574,5.6,5.6,0,0,1,2.064,1.605,7.433,7.433,0,0,1,1.261,2.522,14.816,14.816,0,0,1,.344,3.325,14.124,14.124,0,0,1-.8,5.045,15.706,15.706,0,0,1-2.179,4.128,10.916,10.916,0,0,1-3.211,2.866,12.824,12.824,0,0,1-4.014,1.376l-.574-.8a12.687,12.687,0,0,0,3.1-1.376,10.348,10.348,0,0,0,2.294-2.179,8.007,8.007,0,0,0,1.491-2.752,14.629,14.629,0,0,0,.8-3.211A5.169,5.169,0,0,1,285,185.863a5.225,5.225,0,0,1-2.523.462,7.622,7.622,0,0,1-2.408-.344,5.487,5.487,0,0,1-1.949-1.146,5.239,5.239,0,0,1-1.26-1.835A9.268,9.268,0,0,1,276.4,180.133Zm2.866-.115a8.852,8.852,0,0,0,.231,1.72,6.179,6.179,0,0,0,.8,1.491,2.8,2.8,0,0,0,1.261,1.032,4.047,4.047,0,0,0,1.605.344,4.548,4.548,0,0,0,2.294-.462,3.645,3.645,0,0,0,1.376-1.261c0-.231.115-.574.115-.917v-.917a15.665,15.665,0,0,0-.231-2.179,5.644,5.644,0,0,0-.688-1.949,5.145,5.145,0,0,0-1.261-1.491,2.7,2.7,0,0,0-1.835-.574,3.269,3.269,0,0,0-2.752,1.376,7.088,7.088,0,0,0-.918,3.787Z" transform="translate(-261.149 -173.368)" fill="url(#linear-gradient)"/>
      <path id="Path_42" data-name="Path 42" d="M291.4,180.133a6.728,6.728,0,0,1,.462-2.637,6.242,6.242,0,0,1,1.261-2.064,6.508,6.508,0,0,1,2.064-1.376,7.166,7.166,0,0,1,2.866-.462,7.67,7.67,0,0,1,2.981.574,5.6,5.6,0,0,1,2.064,1.605,7.433,7.433,0,0,1,1.261,2.522,14.816,14.816,0,0,1,.344,3.325,14.124,14.124,0,0,1-.8,5.045,15.706,15.706,0,0,1-2.179,4.128,10.917,10.917,0,0,1-3.211,2.866,12.823,12.823,0,0,1-4.014,1.376l-.574-.8a12.688,12.688,0,0,0,3.1-1.376,10.35,10.35,0,0,0,2.294-2.179,8.008,8.008,0,0,0,1.491-2.752,14.635,14.635,0,0,0,.8-3.211A5.169,5.169,0,0,1,300,185.863a5.224,5.224,0,0,1-2.522.462,7.622,7.622,0,0,1-2.408-.344,5.486,5.486,0,0,1-1.949-1.146,5.241,5.241,0,0,1-1.26-1.835A9.27,9.27,0,0,1,291.4,180.133Zm2.866-.115a8.855,8.855,0,0,0,.231,1.72,6.177,6.177,0,0,0,.8,1.491,2.8,2.8,0,0,0,1.261,1.032,3.662,3.662,0,0,0,1.605.344,4.548,4.548,0,0,0,2.294-.462,3.645,3.645,0,0,0,1.376-1.261c0-.231.115-.574.115-.917v-.917a15.67,15.67,0,0,0-.231-2.179,5.645,5.645,0,0,0-.688-1.949,5.145,5.145,0,0,0-1.261-1.491,2.7,2.7,0,0,0-1.835-.574,3.269,3.269,0,0,0-2.752,1.376,6.184,6.184,0,0,0-.918,3.787Z" transform="translate(-258.948 -173.368)" fill="url(#linear-gradient)"/>
      <path id="Path_43" data-name="Path 43" d="M317.274,194.5h-8.6v-.917a7.961,7.961,0,0,1,1.491-.574c.462-.115,1.032-.344,1.491-.462V178.1l.115-1.72a9.549,9.549,0,0,1-1.72.462,9.269,9.269,0,0,1-1.835.115l-.115-.688a28.019,28.019,0,0,0,2.752-1.146,13.019,13.019,0,0,0,2.638-1.723h.688v19.15a7.416,7.416,0,0,1,1.491.462,7.959,7.959,0,0,1,1.491.574v.911Z" transform="translate(-256.5 -173.4)" fill="url(#linear-gradient)"/>
    </g>
  </g>
</svg>
