<svg xmlns="http://www.w3.org/2000/svg" width="483.573" height="71.859" viewBox="0 0 483.573 71.859">
  <g id="Redstone_Advisors_Inc_PMS_Black6U_18_" data-name="Redstone_Advisors_Inc_PMS_Black6U[18]" transform="translate(-104.1 -40.4)">
    <g id="Group_46" data-name="Group 46" transform="translate(104.1 49.014)">
      <g id="Group_45" data-name="Group 45" transform="translate(0 0)">
        <g id="Group_44" data-name="Group 44">
          <path id="Path_91" data-name="Path 91" d="M104.1,110.044l4.25-6.971V67.937l-4.25-6.971V60.4h24.765a35.676,35.676,0,0,1,11.5,1.587,14.949,14.949,0,0,1,7.027,4.477,10.322,10.322,0,0,1,2.324,6.8,11.038,11.038,0,0,1-4.93,9.747,26.882,26.882,0,0,1-12.468,4.25v.227a50.344,50.344,0,0,0,8.331,1.417l9.294,15.244,6.064,5.95v.51H137.479L126.712,87.829c-.283,0-.68.057-1.247.057h-1.247v-2.04h1.7c3.23,0,5.61-1.077,7.084-3.287s2.21-5.157,2.21-8.954c0-3.627-.793-6.4-2.38-8.274s-4.307-2.834-8.217-2.834h-2.494V103.13l4.25,6.971v.567H104.213v-.623Z" transform="translate(-104.1 -57.68)" fill="#4d4e56"/>
          <path id="Path_92" data-name="Path 92" d="M224.082,114.452a13.781,13.781,0,0,0,3.967-2.1l.51.51a18.916,18.916,0,0,1-6.744,6.8,19.235,19.235,0,0,1-9.747,2.324,18.391,18.391,0,0,1-9.294-2.324,15.5,15.5,0,0,1-6.12-6.4,19.958,19.958,0,0,1-2.154-9.351,20.594,20.594,0,0,1,2.38-9.974,17.386,17.386,0,0,1,6.63-6.8,19.153,19.153,0,0,1,9.747-2.437,16.787,16.787,0,0,1,8.727,2.21A14.765,14.765,0,0,1,227.6,92.8a17.691,17.691,0,0,1,1.927,8.331h-22.1v.567a16.56,16.56,0,0,0,1.417,7.141,10.974,10.974,0,0,0,3.967,4.76,10.719,10.719,0,0,0,6.064,1.7A15.017,15.017,0,0,0,224.082,114.452ZM208.611,90.707A37.285,37.285,0,0,0,207.478,100l9.691-.68a52.719,52.719,0,0,0-.453-7.594,8.722,8.722,0,0,0-1.417-4.08,3.107,3.107,0,0,0-2.664-1.247C210.651,86.4,209.348,87.817,208.611,90.707Z" transform="translate(-143.269 -68.209)" fill="#4d4e56"/>
          <path id="Path_93" data-name="Path 93" d="M269.461,107.171a13.164,13.164,0,0,1-4.76-6.064,21.964,21.964,0,0,1-1.7-8.841,22.265,22.265,0,0,1,2.38-10.427,17.216,17.216,0,0,1,6.8-7.141,20.11,20.11,0,0,1,10.257-2.55,14,14,0,0,1,6.064,1.3V63.477l-3.06-3.967V59l15.3-3.4.51.4v45.11l3.57,4.7v.4l-14.508,3.117-1.473-5.667a22.978,22.978,0,0,1-5.327,4.08,13.638,13.638,0,0,1-6.744,1.587A12.234,12.234,0,0,1,269.461,107.171Zm16.775-3.91a6.7,6.7,0,0,0,2.21-1.3V79.288a8.445,8.445,0,0,0-1.473-4.137,3.547,3.547,0,0,0-2.947-1.417c-2.493,0-4.42,1.3-5.78,3.967s-2.04,6.517-2.04,11.5c0,4.76.623,8.331,1.927,10.767s3.174,3.684,5.61,3.684A6.074,6.074,0,0,0,286.235,103.26Z" transform="translate(-172.95 -55.6)" fill="#4d4e56"/>
          <path id="Path_94" data-name="Path 94" d="M350.464,121.039a25.51,25.51,0,0,1-6.064-1.927l2.324-10.144h.737a55.2,55.2,0,0,0,3.967,6.857,14.348,14.348,0,0,0,4.59,4.534,13.753,13.753,0,0,0,2.04.113c2.324,0,3.967-.453,4.93-1.417a5.081,5.081,0,0,0,1.473-3.74,4.587,4.587,0,0,0-.963-2.777,8.847,8.847,0,0,0-2.55-2.153,45.492,45.492,0,0,0-4.137-2.1l-1.927-.907a36.368,36.368,0,0,1-5.214-2.947,14.024,14.024,0,0,1-3.57-3.74,9.823,9.823,0,0,1-1.417-5.214,9.046,9.046,0,0,1,4.25-8.161c2.834-1.813,6.687-2.72,11.618-2.72a35.9,35.9,0,0,1,5.837.51A35.4,35.4,0,0,1,372,86.47l-1.7,9.8h-.51c-1.757-2.55-3.23-4.59-4.477-6.234a28.432,28.432,0,0,0-3.57-3.967,6.2,6.2,0,0,0-1.247-.113,5.724,5.724,0,0,0-4.08,1.36,4.623,4.623,0,0,0-1.473,3.457,4.8,4.8,0,0,0,1.643,3.57,22.219,22.219,0,0,0,4.874,3l2.324,1.133a38.074,38.074,0,0,1,5.327,2.947,13.46,13.46,0,0,1,3.8,3.8,9.393,9.393,0,0,1,1.53,5.384,9.031,9.031,0,0,1-2.21,6.12,13.34,13.34,0,0,1-5.95,3.8,26.183,26.183,0,0,1-8.444,1.247A28.5,28.5,0,0,1,350.464,121.039Z" transform="translate(-208.22 -68.165)" fill="#4d4e56"/>
          <path id="Path_95" data-name="Path 95" d="M411.817,114.647a8.873,8.873,0,0,1-4.024-3.457,10.334,10.334,0,0,1-1.473-5.61V80.814H401.9v-.34L418.278,70.5h.68v8.9h10.427v1.417H418.958v24.6a6.317,6.317,0,0,0,1.19,4.137,4.136,4.136,0,0,0,3.4,1.417,14.779,14.779,0,0,0,3.627-.453,9.977,9.977,0,0,0,2.834-1.247l.4.51a14.859,14.859,0,0,1-5.384,4.364,16.559,16.559,0,0,1-7.537,1.7A14.066,14.066,0,0,1,411.817,114.647Z" transform="translate(-233.134 -62.056)" fill="#4d4e56"/>
          <path id="Path_96" data-name="Path 96" d="M461.991,119.553a17.9,17.9,0,0,1-7.084-6.687,18.244,18.244,0,0,1-2.607-9.577,17.486,17.486,0,0,1,2.607-9.464,18.458,18.458,0,0,1,7.141-6.687A20.531,20.531,0,0,1,472.078,84.7a20.972,20.972,0,0,1,10.144,2.437,18.86,18.86,0,0,1,7.141,6.687,18.189,18.189,0,0,1,2.607,9.521,17.875,17.875,0,0,1-2.607,9.577,18.074,18.074,0,0,1-7.141,6.687,21.464,21.464,0,0,1-10.144,2.437A22.873,22.873,0,0,1,461.991,119.553Zm15.074-3.344c1.077-2.89,1.643-7.2,1.643-12.864s-.567-9.917-1.643-12.864c-1.133-2.89-2.777-4.364-4.987-4.364s-3.854,1.417-4.93,4.307-1.587,7.2-1.587,12.864c0,5.724.51,10.031,1.587,12.921s2.72,4.307,4.93,4.307C474.345,120.573,475.988,119.1,477.065,116.209Z" transform="translate(-254.972 -68.209)" fill="#4d4e56"/>
          <path id="Path_97" data-name="Path 97" d="M524.9,120.586l3.684-5.327V92.421l-3.4-3.91V88l15.811-3.4.34.4v5.27a19.541,19.541,0,0,1,5.724-4.08,16.118,16.118,0,0,1,6.971-1.587,11.717,11.717,0,0,1,5.5,1.247,9.907,9.907,0,0,1,3.91,3.57,9.6,9.6,0,0,1,1.417,5.214v20.515l3.684,5.384v.51H548.758v-.51l3.4-5.27V95.084a5.711,5.711,0,0,0-1.3-3.91,4.7,4.7,0,0,0-3.684-1.473,8.337,8.337,0,0,0-3.174.623,7.426,7.426,0,0,0-2.607,1.7v23.122l3.4,5.384v.51H524.957v-.453Z" transform="translate(-286.429 -68.165)" fill="#4d4e56"/>
          <path id="Path_98" data-name="Path 98" d="M633.782,114.452a13.782,13.782,0,0,0,3.967-2.1l.51.51a18.916,18.916,0,0,1-6.744,6.8,19.235,19.235,0,0,1-9.747,2.324,18.39,18.39,0,0,1-9.294-2.324,15.5,15.5,0,0,1-6.12-6.4,19.959,19.959,0,0,1-2.154-9.351,20.594,20.594,0,0,1,2.38-9.974,17.387,17.387,0,0,1,6.63-6.8,19.154,19.154,0,0,1,9.747-2.437,16.787,16.787,0,0,1,8.727,2.21A14.766,14.766,0,0,1,637.3,92.8a17.69,17.69,0,0,1,1.927,8.331h-22.1v.567a16.559,16.559,0,0,0,1.417,7.141,10.974,10.974,0,0,0,3.967,4.76,10.719,10.719,0,0,0,6.064,1.7A15.017,15.017,0,0,0,633.782,114.452ZM618.311,90.707A37.286,37.286,0,0,0,617.178,100l9.691-.68a52.725,52.725,0,0,0-.453-7.594A8.722,8.722,0,0,0,625,87.647a3.107,3.107,0,0,0-2.664-1.247C620.351,86.4,618.991,87.817,618.311,90.707Z" transform="translate(-320.789 -68.209)" fill="#4d4e56"/>
        </g>
      </g>
    </g>
    <g id="Group_47" data-name="Group 47" transform="translate(449.566 40.4)">
      <rect id="Rectangle_32" data-name="Rectangle 32" width="3.06" height="71.859" fill="#4d4e56"/>
    </g>
    <g id="Group_48" data-name="Group 48" transform="translate(479.715 61.425)">
      <path id="Path_99" data-name="Path 99" d="M778.291,92.831l-1.53-4.194h-5.78l-1.473,4.194H766.9L772.51,77.7h2.664l5.61,15.131Zm-2.154-6.29-1.417-4.08c-.113-.283-.227-.68-.453-1.3-.17-.567-.283-1.02-.4-1.3a23.757,23.757,0,0,1-.793,2.777l-1.36,3.91Z" transform="translate(-766.9 -77.587)" fill="#4d4e56"/>
      <path id="Path_100" data-name="Path 100" d="M809.041,85.224a7.49,7.49,0,0,1-2.1,5.724,8.284,8.284,0,0,1-5.95,1.983H796.8V77.8h4.647a7.76,7.76,0,0,1,5.61,1.927A7.416,7.416,0,0,1,809.041,85.224Zm-2.607.057c0-3.627-1.7-5.384-5.044-5.384h-2.154V90.834h1.757C804.621,90.834,806.434,88.964,806.434,85.281Z" transform="translate(-779.855 -77.63)" fill="#4d4e56"/>
      <path id="Path_101" data-name="Path 101" d="M832.1,77.8h2.55l-5.27,15.074H826.77L821.5,77.8h2.55l3.117,9.351a16,16,0,0,1,.51,1.7c.17.68.283,1.247.34,1.587.113-.51.227-1.133.4-1.813s.34-1.19.453-1.53Z" transform="translate(-790.558 -77.63)" fill="#4d4e56"/>
      <path id="Path_102" data-name="Path 102" d="M851.6,92.874V77.8h2.437V92.874Z" transform="translate(-803.6 -77.63)" fill="#4d4e56"/>
      <path id="Path_103" data-name="Path 103" d="M872.791,88.664a3.875,3.875,0,0,1-1.473,3.174,6.528,6.528,0,0,1-4.024,1.133,9.877,9.877,0,0,1-4.194-.793V89.854a9.213,9.213,0,0,0,2.21.737,10.235,10.235,0,0,0,2.154.283,3.263,3.263,0,0,0,2.153-.567,1.828,1.828,0,0,0,.68-1.473,1.931,1.931,0,0,0-.623-1.417A10.533,10.533,0,0,0,867.01,86a6.926,6.926,0,0,1-2.89-1.927,4.067,4.067,0,0,1-.85-2.55,3.506,3.506,0,0,1,1.36-2.947A5.475,5.475,0,0,1,868.2,77.5a10.781,10.781,0,0,1,4.307.963l-.793,1.983a9.507,9.507,0,0,0-3.57-.85,2.768,2.768,0,0,0-1.813.51,1.724,1.724,0,0,0-.623,1.36,1.94,1.94,0,0,0,.227,1.02,2.641,2.641,0,0,0,.793.793,18.521,18.521,0,0,0,2.04.963,10.222,10.222,0,0,1,2.437,1.3,3.648,3.648,0,0,1,1.133,1.36A2.908,2.908,0,0,1,872.791,88.664Z" transform="translate(-808.583 -77.5)" fill="#4d4e56"/>
      <path id="Path_104" data-name="Path 104" d="M899.454,85.207a8.452,8.452,0,0,1-1.813,5.724,6.663,6.663,0,0,1-5.214,2.04,6.583,6.583,0,0,1-5.214-2.04,8.174,8.174,0,0,1-1.813-5.724,8.253,8.253,0,0,1,1.813-5.724,7.835,7.835,0,0,1,10.484.057A8.368,8.368,0,0,1,899.454,85.207Zm-11.5,0a6.615,6.615,0,0,0,1.133,4.194,3.95,3.95,0,0,0,3.344,1.417,3.838,3.838,0,0,0,3.287-1.417,6.911,6.911,0,0,0,1.133-4.25,6.727,6.727,0,0,0-1.133-4.194,3.838,3.838,0,0,0-3.287-1.417,3.95,3.95,0,0,0-3.344,1.417A7.027,7.027,0,0,0,887.95,85.207Z" transform="translate(-818.245 -77.5)" fill="#4d4e56"/>
      <path id="Path_105" data-name="Path 105" d="M918.537,86.867v6.007H916.1V77.8h4.25a6.887,6.887,0,0,1,4.307,1.077,3.994,3.994,0,0,1,1.417,3.287,4.121,4.121,0,0,1-2.947,4.024l4.25,6.687H924.6l-3.627-6.007h-2.437Zm0-2.04h1.7a4.122,4.122,0,0,0,2.494-.623,2.393,2.393,0,0,0,.793-1.87,1.959,1.959,0,0,0-.85-1.813,4.394,4.394,0,0,0-2.494-.567h-1.643Z" transform="translate(-831.547 -77.63)" fill="#4d4e56"/>
      <path id="Path_106" data-name="Path 106" d="M949.991,88.664a3.875,3.875,0,0,1-1.473,3.174,6.528,6.528,0,0,1-4.024,1.133,9.877,9.877,0,0,1-4.194-.793V89.854a9.211,9.211,0,0,0,2.21.737,10.233,10.233,0,0,0,2.153.283,3.263,3.263,0,0,0,2.154-.567,1.828,1.828,0,0,0,.68-1.473,1.932,1.932,0,0,0-.623-1.417A10.534,10.534,0,0,0,944.21,86a6.924,6.924,0,0,1-2.89-1.927,4.067,4.067,0,0,1-.85-2.55,3.506,3.506,0,0,1,1.36-2.947A5.475,5.475,0,0,1,945.4,77.5a10.781,10.781,0,0,1,4.307.963l-.793,1.983a9.507,9.507,0,0,0-3.57-.85,2.769,2.769,0,0,0-1.813.51,1.724,1.724,0,0,0-.623,1.36,1.94,1.94,0,0,0,.227,1.02,2.64,2.64,0,0,0,.793.793,18.521,18.521,0,0,0,2.04.963,10.224,10.224,0,0,1,2.437,1.3,3.649,3.649,0,0,1,1.133,1.36A2.908,2.908,0,0,1,949.991,88.664Z" transform="translate(-842.033 -77.5)" fill="#4d4e56"/>
      <path id="Path_107" data-name="Path 107" d="M770.6,137.574V122.5h2.437v15.074Z" transform="translate(-768.503 -96.998)" fill="#4d4e56"/>
      <path id="Path_108" data-name="Path 108" d="M795.468,137.574h-3L785.04,125.56h-.057l.057.68c.113,1.3.17,2.437.17,3.514v7.821H783V122.5h3l7.367,11.958h.057c0-.17-.057-.737-.057-1.7-.057-1.02-.057-1.757-.057-2.324v-7.877h2.267v15.018Z" transform="translate(-773.876 -96.998)" fill="#4d4e56"/>
      <path id="Path_109" data-name="Path 109" d="M818.984,124.153a4.017,4.017,0,0,0-3.344,1.53,6.531,6.531,0,0,0-1.19,4.137,6.381,6.381,0,0,0,1.19,4.194,4.136,4.136,0,0,0,3.4,1.417,10.433,10.433,0,0,0,1.87-.17,11.471,11.471,0,0,0,1.87-.51v2.1a11.09,11.09,0,0,1-4.024.68,6.573,6.573,0,0,1-5.1-1.983,8.339,8.339,0,0,1-1.757-5.724,9.46,9.46,0,0,1,.85-4.137,6.121,6.121,0,0,1,2.494-2.72,7.557,7.557,0,0,1,3.8-.963,9.742,9.742,0,0,1,4.25.963l-.907,2.04a13.192,13.192,0,0,0-1.587-.623A9.338,9.338,0,0,0,818.984,124.153Z" transform="translate(-786.398 -96.781)" fill="#4d4e56"/>
      <path id="Path_110" data-name="Path 110" d="M837.5,145.63a1.385,1.385,0,0,1,.4-1.133,1.706,1.706,0,0,1,1.133-.4,1.385,1.385,0,0,1,1.133.4,1.825,1.825,0,0,1,.4,1.133,1.461,1.461,0,0,1-.4,1.133,1.49,1.49,0,0,1-1.133.453,1.461,1.461,0,0,1-1.133-.4A1.6,1.6,0,0,1,837.5,145.63Z" transform="translate(-797.49 -106.357)" fill="#4d4e56"/>
    </g>
  </g>
</svg>
