<svg xmlns="http://www.w3.org/2000/svg" width="217.503" height="32.321" viewBox="0 0 217.503 32.321">
  <g id="Redstone_Advisors_Inc_PMS_Black6U_18_" data-name="Redstone_Advisors_Inc_PMS_Black6U[18]" transform="translate(-104.1 -40.4)">
    <g id="Group_22" data-name="Group 22" transform="translate(104.1 44.274)">
      <g id="Group_21" data-name="Group 21" transform="translate(0 0)">
        <g id="Group_20" data-name="Group 20">
          <path id="Path_68" data-name="Path 68" d="M104.1,82.729l1.912-3.135V63.79L104.1,60.655V60.4h11.139a16.047,16.047,0,0,1,5.174.714,6.724,6.724,0,0,1,3.161,2.014,4.642,4.642,0,0,1,1.045,3.059A4.965,4.965,0,0,1,122.4,70.57a12.091,12.091,0,0,1-5.608,1.912v.1a22.643,22.643,0,0,0,3.747.637l4.18,6.857,2.727,2.676v.229h-8.335L114.27,72.737c-.127,0-.306.025-.561.025h-.561v-.918h.765a3.551,3.551,0,0,0,3.186-1.478,7.133,7.133,0,0,0,.994-4.027,5.635,5.635,0,0,0-1.071-3.721,4.622,4.622,0,0,0-3.7-1.274h-1.122V79.619l1.912,3.135v.255h-9.966v-.28Z" transform="translate(-104.1 -59.176)" fill="#c7ae86"/>
          <path id="Path_69" data-name="Path 69" d="M207.806,98.082a6.2,6.2,0,0,0,1.784-.943l.229.229a8.508,8.508,0,0,1-3.033,3.059,8.651,8.651,0,0,1-4.384,1.045,8.272,8.272,0,0,1-4.18-1.045,6.971,6.971,0,0,1-2.753-2.88,8.977,8.977,0,0,1-.969-4.206,9.263,9.263,0,0,1,1.071-4.486,7.82,7.82,0,0,1,2.982-3.059,8.615,8.615,0,0,1,4.384-1.1,7.55,7.55,0,0,1,3.925.994,6.641,6.641,0,0,1,2.523,2.651,7.957,7.957,0,0,1,.867,3.747h-9.941v.255a7.448,7.448,0,0,0,.637,3.212,4.936,4.936,0,0,0,1.784,2.141,4.821,4.821,0,0,0,2.727.765A6.754,6.754,0,0,0,207.806,98.082ZM200.847,87.4a16.77,16.77,0,0,0-.51,4.18l4.359-.306a23.713,23.713,0,0,0-.2-3.416,3.923,3.923,0,0,0-.637-1.835,1.4,1.4,0,0,0-1.2-.561C201.765,85.465,201.178,86.1,200.847,87.4Z" transform="translate(-171.457 -77.283)" fill="#c7ae86"/>
          <path id="Path_70" data-name="Path 70" d="M265.906,78.8a5.921,5.921,0,0,1-2.141-2.727A9.879,9.879,0,0,1,263,72.092a10.015,10.015,0,0,1,1.071-4.69,7.743,7.743,0,0,1,3.059-3.212,9.045,9.045,0,0,1,4.614-1.147,6.3,6.3,0,0,1,2.727.586V59.143l-1.376-1.784v-.229l6.882-1.529.229.178v20.29l1.606,2.116v.178l-6.525,1.4-.663-2.549a10.335,10.335,0,0,1-2.4,1.835,6.134,6.134,0,0,1-3.033.714A5.5,5.5,0,0,1,265.906,78.8Zm7.545-1.759a3.015,3.015,0,0,0,.994-.586v-10.2a3.8,3.8,0,0,0-.663-1.861,1.6,1.6,0,0,0-1.325-.637,2.828,2.828,0,0,0-2.6,1.784,11.678,11.678,0,0,0-.918,5.174,10.538,10.538,0,0,0,.867,4.843,2.76,2.76,0,0,0,2.523,1.657A2.732,2.732,0,0,0,273.451,77.037Z" transform="translate(-222.497 -55.6)" fill="#c7ae86"/>
          <path id="Path_71" data-name="Path 71" d="M347.127,100.99a11.474,11.474,0,0,1-2.727-.867l1.045-4.563h.331a24.829,24.829,0,0,0,1.784,3.084,6.453,6.453,0,0,0,2.065,2.039,6.186,6.186,0,0,0,.918.051,3.076,3.076,0,0,0,2.218-.637,2.286,2.286,0,0,0,.663-1.682,2.063,2.063,0,0,0-.433-1.249,3.979,3.979,0,0,0-1.147-.969,20.46,20.46,0,0,0-1.861-.943l-.867-.408a16.355,16.355,0,0,1-2.345-1.325,6.308,6.308,0,0,1-1.606-1.682,4.418,4.418,0,0,1-.637-2.345,4.069,4.069,0,0,1,1.912-3.671,9.607,9.607,0,0,1,5.225-1.224,16.145,16.145,0,0,1,2.625.229,15.921,15.921,0,0,1,2.523.612l-.765,4.41h-.229c-.79-1.147-1.453-2.065-2.014-2.8a12.787,12.787,0,0,0-1.606-1.784,2.792,2.792,0,0,0-.561-.051,2.575,2.575,0,0,0-1.835.612,2.079,2.079,0,0,0-.663,1.555,2.161,2.161,0,0,0,.739,1.606,9.995,9.995,0,0,0,2.192,1.351l1.045.51a17.126,17.126,0,0,1,2.4,1.325,6.054,6.054,0,0,1,1.708,1.708,4.224,4.224,0,0,1,.688,2.422,4.062,4.062,0,0,1-.994,2.753,6,6,0,0,1-2.676,1.708,11.777,11.777,0,0,1-3.8.561A12.818,12.818,0,0,1,347.127,100.99Z" transform="translate(-283.148 -77.208)" fill="#c7ae86"/>
          <path id="Path_72" data-name="Path 72" d="M406.361,90.356a3.991,3.991,0,0,1-1.81-1.555,4.648,4.648,0,0,1-.663-2.523V75.139H401.9v-.153l7.366-4.486h.306v4h4.69v.637h-4.69V86.2a2.841,2.841,0,0,0,.535,1.861,1.86,1.86,0,0,0,1.529.637,6.648,6.648,0,0,0,1.631-.2,4.487,4.487,0,0,0,1.274-.561l.178.229a6.683,6.683,0,0,1-2.422,1.963,7.448,7.448,0,0,1-3.39.765A6.326,6.326,0,0,1,406.361,90.356Z" transform="translate(-325.992 -66.702)" fill="#c7ae86"/>
          <path id="Path_73" data-name="Path 73" d="M456.659,100.376a8.05,8.05,0,0,1-3.186-3.008,8.206,8.206,0,0,1-1.173-4.308,7.865,7.865,0,0,1,1.173-4.257,8.3,8.3,0,0,1,3.212-3.008,9.235,9.235,0,0,1,4.512-1.1,9.433,9.433,0,0,1,4.563,1.1A8.483,8.483,0,0,1,468.97,88.8a8.181,8.181,0,0,1,1.173,4.282,8.04,8.04,0,0,1-1.173,4.308,8.129,8.129,0,0,1-3.212,3.008,9.654,9.654,0,0,1-4.563,1.1A10.288,10.288,0,0,1,456.659,100.376Zm6.78-1.5a17.477,17.477,0,0,0,.739-5.786,17.581,17.581,0,0,0-.739-5.786c-.51-1.3-1.249-1.963-2.243-1.963s-1.733.637-2.218,1.937a17.6,17.6,0,0,0-.714,5.786,17.665,17.665,0,0,0,.714,5.812c.484,1.3,1.224,1.937,2.218,1.937C462.215,100.835,462.955,100.172,463.439,98.872Z" transform="translate(-363.545 -77.282)" fill="#c7ae86"/>
          <path id="Path_74" data-name="Path 74" d="M524.9,100.786l1.657-2.4V88.118l-1.529-1.759v-.229l7.112-1.529.153.178v2.371a8.789,8.789,0,0,1,2.574-1.835A7.25,7.25,0,0,1,538,84.6a5.27,5.27,0,0,1,2.473.561,4.457,4.457,0,0,1,1.759,1.606,4.32,4.32,0,0,1,.637,2.345v9.227l1.657,2.422v.229h-8.9v-.229l1.529-2.371V89.316a2.569,2.569,0,0,0-.586-1.759,2.112,2.112,0,0,0-1.657-.663,3.75,3.75,0,0,0-1.427.28,3.341,3.341,0,0,0-1.173.765v10.4l1.529,2.422v.229h-8.921v-.2Z" transform="translate(-417.64 -77.208)" fill="#c7ae86"/>
          <path id="Path_75" data-name="Path 75" d="M617.506,98.082a6.2,6.2,0,0,0,1.784-.943l.229.229a8.508,8.508,0,0,1-3.033,3.059,8.652,8.652,0,0,1-4.384,1.045,8.272,8.272,0,0,1-4.18-1.045,6.971,6.971,0,0,1-2.753-2.88,8.977,8.977,0,0,1-.969-4.206,9.263,9.263,0,0,1,1.071-4.486,7.82,7.82,0,0,1,2.982-3.059,8.615,8.615,0,0,1,4.384-1.1,7.55,7.55,0,0,1,3.925.994,6.641,6.641,0,0,1,2.523,2.651,7.957,7.957,0,0,1,.867,3.747h-9.941v.255a7.448,7.448,0,0,0,.637,3.212,4.936,4.936,0,0,0,1.784,2.141,4.821,4.821,0,0,0,2.727.765A6.754,6.754,0,0,0,617.506,98.082ZM610.547,87.4a16.77,16.77,0,0,0-.51,4.18l4.359-.306a23.713,23.713,0,0,0-.2-3.416,3.922,3.922,0,0,0-.637-1.835,1.4,1.4,0,0,0-1.2-.561C611.465,85.465,610.853,86.1,610.547,87.4Z" transform="translate(-476.726 -77.283)" fill="#c7ae86"/>
        </g>
      </g>
    </g>
    <g id="Group_23" data-name="Group 23" transform="translate(259.485 40.4)">
      <rect id="Rectangle_10" data-name="Rectangle 10" width="1.376" height="32.321" transform="translate(0 0)" fill="#c7ae86"/>
    </g>
    <g id="Group_24" data-name="Group 24" transform="translate(273.045 49.857)">
      <path id="Path_76" data-name="Path 76" d="M772.023,84.506l-.688-1.886h-2.6l-.663,1.886H766.9l2.523-6.806h1.2l2.523,6.806Zm-.969-2.829-.637-1.835c-.051-.127-.1-.306-.2-.586-.076-.255-.127-.459-.178-.586a10.686,10.686,0,0,1-.357,1.249l-.612,1.759Z" transform="translate(-766.9 -77.649)" fill="#c7ae86"/>
      <path id="Path_77" data-name="Path 77" d="M802.306,81.139a3.369,3.369,0,0,1-.943,2.574,3.726,3.726,0,0,1-2.676.892H796.8V77.8h2.09a3.49,3.49,0,0,1,2.523.867A3.336,3.336,0,0,1,802.306,81.139Zm-1.173.025c0-1.631-.765-2.422-2.269-2.422H797.9v4.92h.79A2.189,2.189,0,0,0,801.133,81.165Z" transform="translate(-789.179 -77.724)" fill="#c7ae86"/>
      <path id="Path_78" data-name="Path 78" d="M826.267,77.8h1.147l-2.371,6.78h-1.172L821.5,77.8h1.147l1.4,4.206a7.212,7.212,0,0,1,.229.765c.076.306.127.561.153.714.051-.229.1-.51.178-.816s.153-.535.2-.688Z" transform="translate(-807.583 -77.724)" fill="#c7ae86"/>
      <path id="Path_79" data-name="Path 79" d="M851.6,84.58V77.8h1.1v6.78Z" transform="translate(-830.01 -77.724)" fill="#c7ae86"/>
      <path id="Path_80" data-name="Path 80" d="M867.459,82.521a1.743,1.743,0,0,1-.663,1.427,2.936,2.936,0,0,1-1.81.51A4.443,4.443,0,0,1,863.1,84.1V83.057a4.143,4.143,0,0,0,.994.331,4.6,4.6,0,0,0,.969.127,1.468,1.468,0,0,0,.969-.255.822.822,0,0,0,.306-.663.869.869,0,0,0-.28-.637,4.739,4.739,0,0,0-1.2-.637,3.115,3.115,0,0,1-1.3-.867,1.829,1.829,0,0,1-.382-1.147,1.577,1.577,0,0,1,.612-1.325,2.463,2.463,0,0,1,1.606-.484,4.849,4.849,0,0,1,1.937.433l-.357.892a4.276,4.276,0,0,0-1.606-.382,1.245,1.245,0,0,0-.816.229.775.775,0,0,0-.28.612.873.873,0,0,0,.1.459,1.188,1.188,0,0,0,.357.357,8.331,8.331,0,0,0,.918.433,4.6,4.6,0,0,1,1.1.586,1.641,1.641,0,0,1,.51.612A1.308,1.308,0,0,1,867.459,82.521Z" transform="translate(-838.579 -77.5)" fill="#c7ae86"/>
      <path id="Path_81" data-name="Path 81" d="M891.721,80.967a3.8,3.8,0,0,1-.816,2.574,3,3,0,0,1-2.345.918,2.961,2.961,0,0,1-2.345-.918,4.471,4.471,0,0,1,0-5.149,3.524,3.524,0,0,1,4.716.025A3.764,3.764,0,0,1,891.721,80.967Zm-5.174,0a2.976,2.976,0,0,0,.51,1.886,1.777,1.777,0,0,0,1.5.637,1.726,1.726,0,0,0,1.478-.637,3.108,3.108,0,0,0,.51-1.912,3.026,3.026,0,0,0-.51-1.886,1.726,1.726,0,0,0-1.478-.637,1.777,1.777,0,0,0-1.5.637A3.161,3.161,0,0,0,886.547,80.967Z" transform="translate(-855.195 -77.5)" fill="#c7ae86"/>
      <path id="Path_82" data-name="Path 82" d="M917.2,81.878v2.7h-1.1V77.8h1.912a3.1,3.1,0,0,1,1.937.484,1.8,1.8,0,0,1,.637,1.478,1.853,1.853,0,0,1-1.325,1.81l1.912,3.008h-1.249l-1.631-2.7Zm0-.918h.765a1.854,1.854,0,0,0,1.122-.28,1.076,1.076,0,0,0,.357-.841.881.881,0,0,0-.382-.816,1.976,1.976,0,0,0-1.122-.255H917.2Z" transform="translate(-878.069 -77.724)" fill="#c7ae86"/>
      <path id="Path_83" data-name="Path 83" d="M944.659,82.521A1.743,1.743,0,0,1,944,83.949a2.936,2.936,0,0,1-1.81.51A4.442,4.442,0,0,1,940.3,84.1V83.057a4.143,4.143,0,0,0,.994.331,4.6,4.6,0,0,0,.969.127,1.467,1.467,0,0,0,.969-.255.822.822,0,0,0,.306-.663.869.869,0,0,0-.28-.637,4.738,4.738,0,0,0-1.2-.637,3.115,3.115,0,0,1-1.3-.867,1.829,1.829,0,0,1-.382-1.147,1.577,1.577,0,0,1,.612-1.325,2.463,2.463,0,0,1,1.606-.484,4.849,4.849,0,0,1,1.937.433l-.357.892a4.276,4.276,0,0,0-1.606-.382,1.245,1.245,0,0,0-.816.229.776.776,0,0,0-.28.612.873.873,0,0,0,.1.459,1.188,1.188,0,0,0,.357.357,8.329,8.329,0,0,0,.918.433,4.6,4.6,0,0,1,1.1.586,1.641,1.641,0,0,1,.51.612A1.308,1.308,0,0,1,944.659,82.521Z" transform="translate(-896.101 -77.5)" fill="#c7ae86"/>
      <path id="Path_84" data-name="Path 84" d="M770.6,129.28V122.5h1.1v6.78Z" transform="translate(-769.657 -111.03)" fill="#c7ae86"/>
      <path id="Path_85" data-name="Path 85" d="M788.608,129.28h-1.351l-3.339-5.4h-.026l.026.306c.051.586.076,1.1.076,1.58v3.518H783V122.5h1.351l3.314,5.378h.026c0-.076-.026-.331-.026-.765-.025-.459-.025-.79-.025-1.045v-3.543h1.02v6.755Z" transform="translate(-778.896 -111.03)" fill="#c7ae86"/>
      <path id="Path_86" data-name="Path 86" d="M815.086,122.969a1.807,1.807,0,0,0-1.5.688,2.937,2.937,0,0,0-.535,1.861,2.87,2.87,0,0,0,.535,1.886,1.86,1.86,0,0,0,1.529.637,4.694,4.694,0,0,0,.841-.076,5.161,5.161,0,0,0,.841-.229v.943a4.988,4.988,0,0,1-1.81.306,2.956,2.956,0,0,1-2.294-.892,3.751,3.751,0,0,1-.79-2.574,4.256,4.256,0,0,1,.382-1.861,2.754,2.754,0,0,1,1.122-1.224,3.4,3.4,0,0,1,1.708-.433,4.382,4.382,0,0,1,1.912.433l-.408.918a5.935,5.935,0,0,0-.714-.28A4.2,4.2,0,0,0,815.086,122.969Z" transform="translate(-800.43 -110.657)" fill="#c7ae86"/>
      <path id="Path_87" data-name="Path 87" d="M837.5,144.788a.623.623,0,0,1,.178-.51.768.768,0,0,1,.51-.178.623.623,0,0,1,.51.178.821.821,0,0,1,.178.51.657.657,0,0,1-.178.51.67.67,0,0,1-.51.2.657.657,0,0,1-.51-.178A.718.718,0,0,1,837.5,144.788Z" transform="translate(-819.504 -127.124)" fill="#c7ae86"/>
    </g>
  </g>
</svg>
