<svg xmlns="http://www.w3.org/2000/svg" width="318.441" height="53.838" viewBox="0 0 318.441 53.838">
  <g id="Redstone_Advisors_Inc_PMS_Black6U_18_" data-name="Redstone_Advisors_Inc_PMS_Black6U[18]" transform="translate(-104.1 -49.014)">
    <g id="Group_46" data-name="Group 46" transform="translate(104.1 49.014)">
      <g id="Group_45" data-name="Group 45">
        <g id="Group_44" data-name="Group 44">
          <path id="Path_91" data-name="Path 91" d="M104.1,110.044l4.25-6.971V67.937l-4.25-6.971V60.4h24.765a35.676,35.676,0,0,1,11.5,1.587,14.949,14.949,0,0,1,7.027,4.477,10.322,10.322,0,0,1,2.324,6.8,11.038,11.038,0,0,1-4.93,9.747,26.882,26.882,0,0,1-12.468,4.25v.227a50.346,50.346,0,0,0,8.331,1.417l9.294,15.244,6.064,5.95v.51H137.479l-10.767-22.78c-.283,0-.68.057-1.247.057h-1.247v-2.04h1.7c3.23,0,5.61-1.077,7.084-3.287s2.21-5.157,2.21-8.954c0-3.627-.793-6.4-2.38-8.274s-4.307-2.834-8.217-2.834h-2.494V103.13l4.25,6.971v.567H104.213v-.623Z" transform="translate(-104.1 -57.68)" fill="#4d4e56"/>
          <path id="Path_92" data-name="Path 92" d="M224.082,114.452a13.781,13.781,0,0,0,3.967-2.1l.51.51a18.916,18.916,0,0,1-6.744,6.8,19.235,19.235,0,0,1-9.747,2.324,18.391,18.391,0,0,1-9.294-2.324,15.5,15.5,0,0,1-6.12-6.4,19.958,19.958,0,0,1-2.154-9.351,20.594,20.594,0,0,1,2.38-9.974,17.386,17.386,0,0,1,6.63-6.8,19.153,19.153,0,0,1,9.747-2.437,16.787,16.787,0,0,1,8.727,2.21A14.765,14.765,0,0,1,227.6,92.8a17.691,17.691,0,0,1,1.927,8.331h-22.1v.567a16.56,16.56,0,0,0,1.417,7.141,10.974,10.974,0,0,0,3.967,4.76,10.719,10.719,0,0,0,6.064,1.7,15.017,15.017,0,0,0,5.207-.847ZM208.611,90.707A37.285,37.285,0,0,0,207.478,100l9.691-.68a52.715,52.715,0,0,0-.453-7.594,8.722,8.722,0,0,0-1.417-4.08,3.107,3.107,0,0,0-2.664-1.247C210.651,86.4,209.348,87.817,208.611,90.707Z" transform="translate(-143.269 -68.209)" fill="#4d4e56"/>
          <path id="Path_93" data-name="Path 93" d="M269.461,107.171a13.164,13.164,0,0,1-4.76-6.064,21.964,21.964,0,0,1-1.7-8.841,22.265,22.265,0,0,1,2.38-10.427,17.216,17.216,0,0,1,6.8-7.141,20.11,20.11,0,0,1,10.257-2.55,14,14,0,0,1,6.064,1.3V63.477l-3.06-3.967V59l15.3-3.4.51.4v45.11l3.57,4.7v.4l-14.508,3.117-1.473-5.667a22.977,22.977,0,0,1-5.327,4.08,13.638,13.638,0,0,1-6.744,1.587,12.234,12.234,0,0,1-7.309-2.156Zm16.775-3.91a6.7,6.7,0,0,0,2.21-1.3V79.288a8.445,8.445,0,0,0-1.473-4.137,3.547,3.547,0,0,0-2.947-1.417c-2.493,0-4.42,1.3-5.78,3.967s-2.04,6.517-2.04,11.5c0,4.76.623,8.331,1.927,10.767s3.174,3.684,5.61,3.684a6.074,6.074,0,0,0,2.492-.392Z" transform="translate(-172.95 -55.6)" fill="#4d4e56"/>
          <path id="Path_94" data-name="Path 94" d="M350.464,121.039a25.51,25.51,0,0,1-6.064-1.927l2.324-10.144h.737a55.2,55.2,0,0,0,3.967,6.857,14.349,14.349,0,0,0,4.59,4.534,13.751,13.751,0,0,0,2.04.113c2.324,0,3.967-.453,4.93-1.417a5.081,5.081,0,0,0,1.473-3.74,4.587,4.587,0,0,0-.963-2.777,8.847,8.847,0,0,0-2.55-2.153,45.492,45.492,0,0,0-4.137-2.1l-1.927-.907a36.37,36.37,0,0,1-5.214-2.947,14.024,14.024,0,0,1-3.57-3.74,9.822,9.822,0,0,1-1.417-5.214,9.046,9.046,0,0,1,4.25-8.161c2.834-1.813,6.687-2.72,11.618-2.72a35.9,35.9,0,0,1,5.837.51A35.4,35.4,0,0,1,372,86.47l-1.7,9.8h-.51c-1.757-2.55-3.23-4.59-4.477-6.234a28.434,28.434,0,0,0-3.57-3.967,6.2,6.2,0,0,0-1.247-.113,5.724,5.724,0,0,0-4.08,1.36,4.623,4.623,0,0,0-1.473,3.457,4.8,4.8,0,0,0,1.643,3.57,22.219,22.219,0,0,0,4.874,3l2.324,1.133a38.073,38.073,0,0,1,5.327,2.947,13.46,13.46,0,0,1,3.8,3.8,9.393,9.393,0,0,1,1.53,5.384,9.031,9.031,0,0,1-2.21,6.12,13.34,13.34,0,0,1-5.95,3.8,26.183,26.183,0,0,1-8.444,1.247,28.5,28.5,0,0,1-7.373-.735Z" transform="translate(-208.22 -68.165)" fill="#4d4e56"/>
          <path id="Path_95" data-name="Path 95" d="M411.817,114.647a8.873,8.873,0,0,1-4.024-3.457,10.334,10.334,0,0,1-1.473-5.61V80.814H401.9v-.34L418.278,70.5h.68v8.9h10.427v1.417H418.958v24.6a6.317,6.317,0,0,0,1.19,4.137,4.136,4.136,0,0,0,3.4,1.417,14.779,14.779,0,0,0,3.627-.453,9.977,9.977,0,0,0,2.834-1.247l.4.51a14.86,14.86,0,0,1-5.384,4.364,16.559,16.559,0,0,1-7.537,1.7,14.066,14.066,0,0,1-5.671-1.2Z" transform="translate(-233.134 -62.056)" fill="#4d4e56"/>
          <path id="Path_96" data-name="Path 96" d="M461.991,119.553a17.9,17.9,0,0,1-7.084-6.687,18.244,18.244,0,0,1-2.607-9.577,17.486,17.486,0,0,1,2.607-9.464,18.458,18.458,0,0,1,7.141-6.687,20.531,20.531,0,0,1,10.03-2.438,20.972,20.972,0,0,1,10.144,2.437,18.86,18.86,0,0,1,7.141,6.687,18.189,18.189,0,0,1,2.607,9.521,17.875,17.875,0,0,1-2.607,9.577,18.074,18.074,0,0,1-7.141,6.687,21.464,21.464,0,0,1-10.144,2.437,22.873,22.873,0,0,1-10.087-2.493Zm15.074-3.344c1.077-2.89,1.643-7.2,1.643-12.864s-.567-9.917-1.643-12.864c-1.133-2.89-2.777-4.364-4.987-4.364s-3.854,1.417-4.93,4.307-1.587,7.2-1.587,12.864c0,5.724.51,10.031,1.587,12.921s2.72,4.307,4.93,4.307C474.345,120.573,475.988,119.1,477.065,116.209Z" transform="translate(-254.972 -68.209)" fill="#4d4e56"/>
          <path id="Path_97" data-name="Path 97" d="M524.9,120.586l3.684-5.327V92.421l-3.4-3.91V88l15.811-3.4.34.4v5.27a19.541,19.541,0,0,1,5.724-4.08A16.119,16.119,0,0,1,554.03,84.6a11.717,11.717,0,0,1,5.5,1.247,9.907,9.907,0,0,1,3.91,3.57,9.6,9.6,0,0,1,1.417,5.214v20.515l3.684,5.384v.51H548.758v-.51l3.4-5.27V95.084a5.711,5.711,0,0,0-1.3-3.91,4.7,4.7,0,0,0-3.684-1.473,8.337,8.337,0,0,0-3.174.623,7.426,7.426,0,0,0-2.607,1.7v23.122l3.4,5.384v.51H524.957v-.453Z" transform="translate(-286.429 -68.165)" fill="#4d4e56"/>
          <path id="Path_98" data-name="Path 98" d="M633.782,114.452a13.781,13.781,0,0,0,3.967-2.1l.51.51a18.916,18.916,0,0,1-6.744,6.8,19.235,19.235,0,0,1-9.747,2.324,18.39,18.39,0,0,1-9.294-2.324,15.5,15.5,0,0,1-6.12-6.4,19.959,19.959,0,0,1-2.154-9.351,20.594,20.594,0,0,1,2.38-9.974,17.388,17.388,0,0,1,6.63-6.8,19.153,19.153,0,0,1,9.747-2.437,16.787,16.787,0,0,1,8.727,2.21A14.766,14.766,0,0,1,637.3,92.8a17.69,17.69,0,0,1,1.927,8.331h-22.1v.567a16.559,16.559,0,0,0,1.417,7.141,10.974,10.974,0,0,0,3.967,4.76,10.719,10.719,0,0,0,6.064,1.7,15.017,15.017,0,0,0,5.207-.847ZM618.311,90.707A37.287,37.287,0,0,0,617.178,100l9.691-.68a52.732,52.732,0,0,0-.453-7.594A8.721,8.721,0,0,0,625,87.647a3.107,3.107,0,0,0-2.664-1.247C620.351,86.4,618.991,87.817,618.311,90.707Z" transform="translate(-320.789 -68.209)" fill="#4d4e56"/>
        </g>
      </g>
    </g>
  </g>
</svg>
