<svg xmlns="http://www.w3.org/2000/svg" xmlns:xlink="http://www.w3.org/1999/xlink" width="642" height="359" viewBox="0 0 642 359">
  <defs>
    <clipPath id="clip-path">
      <rect id="Rectangle_58" data-name="Rectangle 58" width="642" height="359" transform="translate(1436 1595)" fill="#fff" stroke="#707070" stroke-width="1"/>
    </clipPath>
  </defs>
  <g id="Mask_Group_3" data-name="Mask Group 3" transform="translate(-1436 -1595)" clip-path="url(#clip-path)">
    <g id="Redstone_Topo_PMS_7502U" transform="translate(1385.2 1406.9)">
      <path id="Path_593" data-name="Path 593" d="M103.3,178.2A333.16,333.16,0,0,0,179.5,229a55.157,55.157,0,0,1,9.2,5.1c3.6,2.7,6.4,6.2,9.1,9.7,12.2,15.5,24.5,31.1,36.7,46.6,9.3,11.8,18.6,23.7,26.6,36.4,9.2,14.7,16.5,30.5,25.7,45.2,13.9,22.5,32,42.6,42,67.1s9.5,56.1-10.3,73.6c-5.1,4.5-11.3,8-15.1,13.7-9.2,13.8.2,33.1-5.6,48.6-4,10.8-14.5,17.6-21.4,26.8-7.3,9.8-10.4,22-16,32.7a76.006,76.006,0,0,1-31,31.3" fill="none" stroke="#c7ae86" stroke-miterlimit="10" stroke-width="1"/>
      <path id="Path_594" data-name="Path 594" d="M131.4,133.8A340.091,340.091,0,0,1,192,148.1c6.5,2.2,13.1,4.6,18.6,8.7,5.6,4.2,9.8,9.9,14.3,15.3A154.108,154.108,0,0,0,274,210.8c10.3,5.1,21.2,9.2,30.3,16.1,19.5,14.8,28.2,40.4,46.8,56.3,1.9,1.6,4.1,3.2,6.6,3.5,4,.4,7.5-2.8,9.8-6.2,7.4-11,7.7-25.2,7.8-38.5.1-16.6.1-33.2.2-49.8,0-2.1,0-4.2,1.1-6,1.1-1.9,3.1-3.1,5.1-4.1,6.9-3.8,15.5-7.6,22.3-3.6,8.4,5,8.9,19.2,18.3,21.9,5.9,1.7,12.1-2.7,14.6-8.3s2.2-11.9,1.9-18c-1-17.3-1.9-34.6-2.9-52-.3-5,1-11.9,6-12a14.435,14.435,0,0,1,4.9,1.4c9.5,3.5,20-3.6,25-12.5s6.4-19.2,10.1-28.6a62.6,62.6,0,0,1,18.7-25.6" fill="none" stroke="#c7ae86" stroke-miterlimit="10" stroke-width="1"/>
      <path id="Path_595" data-name="Path 595" d="M532.4,78.1c-21.7,39.3-14.1,88.2-27.2,131.1-8.4,27.6-25.2,51.9-38.1,77.7-12.9,25.9-22.2,55.7-14.2,83.5,2.7,9.4,5.7,22.5-3.2,26.3-5.8,2.5-12.1-1.6-17.5-4.9a84.913,84.913,0,0,0-37.6-12.3c-5.6-.5-12.6.6-14.4,5.9-2.2,6.7,5.7,11.8,11.6,15.7A43.11,43.11,0,0,1,409.1,425c.9,3.2,1.5,6.6.7,9.9-.9,3.8-3.5,6.9-5.9,10-14.9,18.5-28.4,42.3-21,64.9,3,9.1,9.3,17.2,10.9,26.6,1.7,10.4-2.4,20.8-6.5,30.6-9.8,23.3-19.6,46.7-29.4,70-1.7,4.1-3.6,8.4-7,11.3-6.6,5.6-17.8,4.8-22.5,12.1-4.5,6.9-.5,17.7-6.5,23.4" fill="none" stroke="#c7ae86" stroke-miterlimit="10" stroke-width="1"/>
      <path id="Path_596" data-name="Path 596" d="M555.1,96.7c-14.1,17.1-11.7,41.9-11,64a296.259,296.259,0,0,1-28.4,135.5c-8.8,18.6-19.7,36.8-22.2,57.2a46.023,46.023,0,0,0,3.9,24.8c2.2,4.8,5.9,8.7,9.4,12.6a52.209,52.209,0,0,1,5.4,7c1.3,1.9,5.1,5.4,2.7,7.7-3.6,3.4-10.5,3.6-15.1,4.1-8.2,1-17.4.7-23.8,6.9-4.6,4.4-7.3,7-13.3,9-6.2,2.1-12.8,2.6-17.5,7.6a42.515,42.515,0,0,0-10.5,24.1c-1.7,15.1,2.6,30.1,4.7,45.1,1.7,12.2,7.4,58.9-8.5,64.7-5.2,1.9-11-2.1-16.5-1-8.4,1.7-10.7,13.3-13.6,20.1-4.8,11.6-9.6,23.2-14.4,34.7-9.8,23.7-19.7,47.5-29.5,71.2" fill="none" stroke="#c7ae86" stroke-miterlimit="10" stroke-width="1"/>
      <path id="Path_597" data-name="Path 597" d="M423.4,678.7c-1.8-22-3-46.2,10.2-63.9,5.8-7.7,13.9-13.4,21.9-18.9,5.8-4.1,11.7-8.1,17.5-12.2,2.4-1.6,4.8-3.4,6.1-6,1.1-2.3,1.1-5,1.1-7.6-.7-25.9-5.3-55.2,11.4-75,3.2-3.7,7-7,9.4-11.2s3.1-10,0-13.8c-2.3-2.6-6-3.7-8.1-6.4-4.5-5.8.8-14.1,6.6-18.6,12.6-9.7,28.1-14.6,43.3-19.3,26.8-8.3,53.9-16.7,82-17.9,3.2-.1,7.7-1.6,7-4.7a4.9,4.9,0,0,0-1.1-2c-15.8-20.5-47.8-16.1-71.1-27.5-18-8.8-30.4-28.2-30.7-48.2-.5-27.9,19.9-52,24.2-79.5,1.2-8,1.2-16.5,4.9-23.7,5.2-10,16.8-15.4,22.2-25.3,5.6-10.1,3.6-22.7,6.9-33.8a36.946,36.946,0,0,1,23.8-24.1" fill="none" stroke="#c7ae86" stroke-miterlimit="10" stroke-width="1"/>
      <path id="Path_598" data-name="Path 598" d="M623.2,171.6c-11.2,7.3-17.8,19.9-22.5,32.5-4.6,12.6-7.8,25.8-14.5,37.5-5.6,9.7-13.5,18.3-16.5,29-2.7,9.7-1.1,19.9.8,29.8,2.6,13.2,6,26.9,15.5,36.4,11.3,11.2,28.3,13.7,44.1,15.4,3.6.4,7.4.8,10.6,2.5,4.6,2.4,7.4,7.1,11.3,10.5,6.2,5.4,14.6,7.3,22.3,10.2,7.7,2.8,15.7,7.5,18.2,15.3" fill="none" stroke="#c7ae86" stroke-miterlimit="10" stroke-width="1"/>
      <path id="Path_599" data-name="Path 599" d="M687.8,428.4c-7.5,5.9-15.2,11.9-24.3,14.5-10.8,3.1-22.3,1.2-33.6,1-11.3-.3-23.7,1.8-30.9,10.5-4.6,5.6-6.7,13.5-13,17.1-10.5,6-23.6-4.7-35.4-2.2-9,1.9-14.7,11.1-16.9,20.1-4,16.8.5,35.1-5.3,51.3-4.9,13.7-16.7,24.5-19.4,38.8-2.3,12.3,1.7,27.8-8.1,35.6-4.4,3.5-10.4,4.2-14.8,7.7-4,3.3-5.9,8.5-6.7,13.6a42.561,42.561,0,0,0,6,29.1" fill="none" stroke="#c7ae86" stroke-miterlimit="10" stroke-width="1"/>
      <path id="Path_600" data-name="Path 600" d="M546,631.8c2.4-17.8-6.5-37.4,2.4-53,6.9-11.9,22.7-17.8,26.4-31,1.6-5.8.7-12.6,4.5-17.2,6.5-7.6,18.6-2.1,28.5-2.3,16.3-.4,26.9-17.3,41.7-24.4,12-5.8,26.1-4.8,39.4-3.6" fill="none" stroke="#c7ae86" stroke-miterlimit="10" stroke-width="1"/>
      <path id="Path_601" data-name="Path 601" d="M165.2,106.8c4.7,13.7,18,23,32,27.2,13.9,4.1,28.7,3.9,43.2,4.5s29.5,2,42.3,8.9c8.3,4.5,15.6,11.2,24.7,13.6,13.5,3.5,29.1-4.9,33.5-18.2,1.3-4,1.8-8.5,4.5-11.8,2.5-3,6.3-4.5,9.1-7.2,9.1-8.9,2.3-24.7,6.6-36.7,2.9-8,10.5-13.6,13.2-21.6,1.7-5.1,1.2-10.6,2-15.8.8-5.3,3.4-10.9,8.4-12.6" fill="none" stroke="#c7ae86" stroke-miterlimit="10" stroke-width="1"/>
      <path id="Path_602" data-name="Path 602" d="M217.7,73.6a79.443,79.443,0,0,0,57.9,18.2c9.6-.9,19.4-3.6,28.7-1a35.772,35.772,0,0,0,5.4,1.4c7.5.7,13.3-7.9,12.5-15.4s-6-13.7-11.2-19.2-10.8-11.1-13-18.3" fill="none" stroke="#c7ae86" stroke-miterlimit="10" stroke-width="1"/>
      <path id="Path_603" data-name="Path 603" d="M87.6,199.3c15.2,11.8,30.4,23.5,45.6,35.3,2.3,1.8,4.6,3.6,6.1,6,3.4,5.6,2.3,13.6,7.1,18,5.3,4.8,13.6,2,20.7,2.8,11,1.2,18.6,11.3,23.8,21.1s9.8,20.7,19.2,26.4c4.7,2.9,10.4,4.3,14.1,8.4,2.1,2.3,3.2,5.3,4.1,8.3a67.607,67.607,0,0,1,2.8,22.4c-.1,2.8-.5,5.8.6,8.4,1.4,3.2,4.6,5.2,7.4,7.3a45.24,45.24,0,0,1,15.5,21.1c1.1,3.3,2.1,7,5,9,2.1,1.5,4.9,1.6,7.4,2.5,10.6,3.5,13,17.3,13.6,28.5.4,8.9,2.9,17.7,3.1,26.7.1,4.3.1,9.1-1.5,13.2-2,5.2-6.8,7.4-3.3,13.5,1.4,2.5,3.5,4.4,5.2,6.7,4.8,6.6,5.1,16.7-.8,22.3-3.3,3.2-7,5.5-9.3,9.6-1.4,2.5-5.6,10-5.8,12.4-.5,5,3.5,10.1,5.1,15.2,1.6,5,2.1,10.5,0,15.4-4.8,11.5-20.6,13.3-29.1,22.4-10.1,10.8-8.1,27.7-17.4,39.7-8.9,11.5-22.5,19.4-37.1,20.6" fill="none" stroke="#c7ae86" stroke-miterlimit="10" stroke-width="1"/>
      <path id="Path_604" data-name="Path 604" d="M46.5,271.8A23.829,23.829,0,0,0,64,277.7c11.9-.9,26.7-13.1,37.5-2.6,8.4,8.2-1.7,22.7,5.7,29.1,5.7,4.9,21.6,1,28.2-.2,12.2-2.1,25.9-5.8,37.4.6a24.941,24.941,0,0,1,12.5,22.5c-.2,4.9-1.9,9.9-.8,14.7,2,8.9,11.8,13,18.7,18.9,7.8,6.7,12.4,16,16.5,25.3,3.8,8.7,8.9,16.7,13.7,24.9,1.8,3.2,4,4,6.5,6.2a22.6,22.6,0,0,1,4.4,5.3,28.145,28.145,0,0,1,3.9,13.5,22.037,22.037,0,0,1-2.8,11.5c-2.8,4.9-7.4,8.9-9.1,14.2-2.3,7.1.5,14-.3,21.1-.4,3.7-2,7.5-5,9.8-3,2.2-6.8,2.7-10.2,4.2s-6.6,5-5.5,8.5c.6,1.8,2.1,3.1,3,4.8,3.5,6.3-4.8,14.9-8.8,18.8-7.4,7.1-14.6,5.7-22.6,10.5-4.2,2.5-5.7,8.2-4.6,13,1.6,7.6,7.6,13,11.2,19.6,12.6,22.5-6.2,51.5-31.7,49.7" fill="none" stroke="#c7ae86" stroke-miterlimit="10" stroke-width="1"/>
      <path id="Path_605" data-name="Path 605" d="M115.8,555.8c1.3-4,6.6-4.9,10.8-4.5s9,1.2,12.3-1.5c3.1-2.6,3.3-7.3,2.2-11.2s-3.2-7.4-4-11.4c-1.7-9.2,5.7-19,15-19.8,7.9-.7,17.1,3.7,23-1.5,3.7-3.3,4-8.7,4.9-13.6,2.5-13.4,12.6-21.1,17.8-33,4.1-9.5,3.3-20.2,2.3-30.5l-2.4-25.5c-.8-8.7-1.7-17.7-6.6-24.9-5.9-8.7-16.1-13.1-22.3-21.4-5.1-6.9-.5-19.8-6.1-24.4a8.986,8.986,0,0,0-4.8-1.7c-26.7-4-44,32-70.1,14.2-7.3-5-11.9-12.9-18.4-18.9s-16.6-10-23.9-5" fill="none" stroke="#c7ae86" stroke-miterlimit="10" stroke-width="1"/>
      <path id="Path_606" data-name="Path 606" d="M43.8,389.3a26.027,26.027,0,0,0,25.3,12.4c11.5-1.6,23.5-10.7,33.3-4.6,6,3.7,8.2,12,14.5,15.3s30.3-6.9,29.4,5.6c-.3,4.6-5,10.5-8.8,13-6.1,4-13.5,5.5-19.9,9-16.6,9.2-22.8,29.6-27.5,48-3.2,12.7-6.4,25.3-9.7,38" fill="none" stroke="#c7ae86" stroke-miterlimit="10" stroke-width="1"/>
    </g>
  </g>
</svg>
