<svg xmlns="http://www.w3.org/2000/svg" width="1041.85" height="656.925" viewBox="0 0 1041.85 656.925">
  <g id="R_Est_1991_PMS_7502U_85_" data-name="R_Est_1991_PMS_7502U[85]" transform="translate(-38.4 -96.8)" opacity="0.086">
    <g id="Group_67" data-name="Group 67" transform="translate(38.4 228.86)">
      <g id="Group_62" data-name="Group 62" transform="translate(345.908)">
        <g id="Group_61" data-name="Group 61">
          <path id="Path_491" data-name="Path 491" d="M130.6,520.3l33.39-54.775v-275L130.6,135.752V132H324.188c35.641,0,65.28,4.127,90.041,12.381q36.579,12.381,55.15,34.891a82.456,82.456,0,0,1,18.383,52.9c0,33.39-12.756,58.9-38.643,76.535-25.512,17.633-58.151,28.888-97.544,33.39v1.876c17.258,4.877,39.018,8.254,65.28,10.88l72.783,119.3,47.272,46.521V524.8H391.344L307.306,346.6c-2.251,0-5.628.375-9.755.375H287.8V330.841h13.131c25.512,0,43.9-8.629,55.525-25.887s17.258-40.518,17.258-70.157c0-28.513-6.378-50.273-18.759-64.9s-33.765-22.135-64.154-22.135H270.914V465.9l33.015,54.775v4.5H130.975V520.3Z" transform="translate(-130.6 -132)" fill="#c7ae86"/>
        </g>
      </g>
      <g id="Group_64" data-name="Group 64" transform="translate(0 156.071)">
        <g id="Group_63" data-name="Group 63">
          <path id="Path_492" data-name="Path 492" d="M84.546,173.8c0,2.626-.375,5.252-.375,7.879a55.969,55.969,0,0,1-.75,7.879H80.794l-4.127-10.5H55.658v25.512H71.415l3.752-7.128h2.251a169.187,169.187,0,0,1,0,19.509H75.167l-3.752-7.5H55.658v27.012h22.51l4.877-11.63H85.3c.375,2.626.75,5.252,1.126,8.254a30.4,30.4,0,0,1,0,8.254H38.775v-3a24.249,24.249,0,0,1,7.879-2.251V179.052c-1.126-.375-2.626-.75-4.127-1.126a18.286,18.286,0,0,1-4.127-1.5V173.8Z" transform="translate(-38.4 -173.05)" fill="#c7ae86"/>
          <path id="Path_493" data-name="Path 493" d="M64.129,235.128a8.17,8.17,0,0,0,3,1.876,18.276,18.276,0,0,0,5.628.75,25.527,25.527,0,0,0,5.628-.75,12.64,12.64,0,0,0,4.5-2.251,14.69,14.69,0,0,0,3-3.752,11.983,11.983,0,0,0,1.126-5.252,8.825,8.825,0,0,0-2.251-6.378,14.923,14.923,0,0,0-6-4.5c-2.251-1.5-4.877-2.626-7.5-4.127a49.678,49.678,0,0,1-7.5-4.5,32.6,32.6,0,0,1-6-6.378,18.275,18.275,0,0,1-2.251-9.379,14.282,14.282,0,0,1,1.5-7.128,18.245,18.245,0,0,1,4.127-5.252,17.289,17.289,0,0,1,6.378-3.377,29.258,29.258,0,0,1,8.254-1.126,99.117,99.117,0,0,1,10.88.75,46.618,46.618,0,0,1,7.5,2.251,14.075,14.075,0,0,1-.375,3.752,18.831,18.831,0,0,1-.75,4.5c-.375,1.5-.375,3-.75,4.5s-.375,2.626-.75,3.752H88.89l-3.752-13.131a38.937,38.937,0,0,0-4.5-1.126,28.394,28.394,0,0,0-5.628-.375c-3.377,0-6,.75-7.879,2.626a11.051,11.051,0,0,0-.75,14.257,26.2,26.2,0,0,0,6,4.877,75.57,75.57,0,0,0,7.879,4.127l7.879,4.5a30.316,30.316,0,0,1,6,6q2.251,3.377,2.251,9a17.4,17.4,0,0,1-1.5,7.879,18.059,18.059,0,0,1-4.5,6,20.124,20.124,0,0,1-7.5,3.752,38.016,38.016,0,0,1-9.754,1.5,33.2,33.2,0,0,1-10.88-1.5c-3.377-1.125-5.628-1.876-6.753-3a18.41,18.41,0,0,1,.375-4.127,25.819,25.819,0,0,1,.75-4.877c.375-1.876.375-3.377.75-4.877s.375-3,.75-4.127h2.626Z" transform="translate(8.654 -173.6)" fill="#c7ae86"/>
          <path id="Path_494" data-name="Path 494" d="M111.144,241.606H84.132v-3c1.5-.375,3-1.126,4.127-1.5l4.5-1.126v-57.4H78.129l-5.252,13.881H70.626a15.46,15.46,0,0,1-.375-4.5c0-1.5-.375-3.377-.375-4.877A19.822,19.822,0,0,0,69.5,178.2v-4.5h55.9v4.5a21.394,21.394,0,0,1-.375,4.877c0,1.876-.375,3.377-.375,4.877s-.375,3-.375,4.5h-2.626L116.4,178.577H101.765v57.4c1.5.375,3.377.75,4.5,1.126a13.441,13.441,0,0,1,4.127,1.5v3Z" transform="translate(47.178 -173.325)" fill="#c7ae86"/>
          <path id="Path_495" data-name="Path 495" d="M86.8,194.978a6.213,6.213,0,0,1,1.876-4.5,6.481,6.481,0,0,1,4.877-1.876,7.132,7.132,0,0,1,4.877,1.876,6.34,6.34,0,0,1,0,9,7.132,7.132,0,0,1-4.877,1.876,7.9,7.9,0,0,1-4.877-1.876A6.213,6.213,0,0,1,86.8,194.978Z" transform="translate(94.783 -132.324)" fill="#c7ae86"/>
        </g>
      </g>
      <g id="Group_66" data-name="Group 66" transform="translate(843.009 155.321)">
        <g id="Group_65" data-name="Group 65">
          <path id="Path_496" data-name="Path 496" d="M293.114,242.432H264.976v-3a26.055,26.055,0,0,1,4.877-1.876c1.5-.375,3.377-1.126,4.877-1.5V188.782l.375-5.628a31.247,31.247,0,0,1-5.628,1.5,30.322,30.322,0,0,1-6,.375l-.375-2.251a91.626,91.626,0,0,0,9-3.752,42.592,42.592,0,0,0,8.629-5.628h2.251v62.654a24.267,24.267,0,0,1,4.877,1.5,26.057,26.057,0,0,1,4.877,1.876v3Z" transform="translate(-263.1 -173.4)" fill="#c7ae86"/>
          <path id="Path_497" data-name="Path 497" d="M276.4,194.985a22.013,22.013,0,0,1,1.5-8.629,15.7,15.7,0,0,1,4.127-6.753,21.29,21.29,0,0,1,6.753-4.5,23.445,23.445,0,0,1,9.379-1.5,25.093,25.093,0,0,1,9.754,1.876,18.335,18.335,0,0,1,6.753,5.252,24.321,24.321,0,0,1,4.127,8.254,48.473,48.473,0,0,1,1.125,10.88,46.211,46.211,0,0,1-2.626,16.507,51.383,51.383,0,0,1-7.128,13.506,35.719,35.719,0,0,1-10.5,9.379,41.961,41.961,0,0,1-13.131,4.5l-1.876-2.626a41.519,41.519,0,0,0,10.13-4.5c3-1.876,5.252-4.5,7.5-7.128a26.2,26.2,0,0,0,4.877-9,47.867,47.867,0,0,0,2.626-10.5,16.91,16.91,0,0,1-5.252,3.752c-1.876,1.126-4.877,1.5-8.254,1.5a24.942,24.942,0,0,1-7.879-1.126,17.947,17.947,0,0,1-6.378-3.752c-1.876-1.5-3-3.752-4.127-6A30.324,30.324,0,0,1,276.4,194.985Zm9.379-.375a28.964,28.964,0,0,0,.75,5.628,20.214,20.214,0,0,0,2.626,4.877,9.172,9.172,0,0,0,4.127,3.377,13.241,13.241,0,0,0,5.252,1.126c3,0,5.628-.375,7.5-1.5a11.927,11.927,0,0,0,4.5-4.127c0-.75.375-1.876.375-3v-3a51.267,51.267,0,0,0-.75-7.128,18.473,18.473,0,0,0-2.251-6.378,16.834,16.834,0,0,0-4.127-4.877,8.826,8.826,0,0,0-6-1.876,10.7,10.7,0,0,0-9,4.5C286.9,185.23,285.779,189.357,285.779,194.61Z" transform="translate(-226.502 -172.85)" fill="#c7ae86"/>
          <path id="Path_498" data-name="Path 498" d="M291.4,194.985a22.013,22.013,0,0,1,1.5-8.629,20.424,20.424,0,0,1,4.127-6.753,21.29,21.29,0,0,1,6.753-4.5,23.445,23.445,0,0,1,9.379-1.5,25.093,25.093,0,0,1,9.754,1.876,18.335,18.335,0,0,1,6.753,5.252,24.319,24.319,0,0,1,4.127,8.254,48.475,48.475,0,0,1,1.125,10.88,46.212,46.212,0,0,1-2.626,16.507,51.383,51.383,0,0,1-7.128,13.506,35.718,35.718,0,0,1-10.5,9.379,41.961,41.961,0,0,1-13.131,4.5l-1.876-2.626a41.514,41.514,0,0,0,10.13-4.5c3-1.876,5.252-4.5,7.5-7.128a26.2,26.2,0,0,0,4.877-9,47.872,47.872,0,0,0,2.626-10.5,16.909,16.909,0,0,1-5.252,3.752c-1.876,1.126-4.877,1.5-8.254,1.5a24.941,24.941,0,0,1-7.879-1.126,17.948,17.948,0,0,1-6.378-3.752c-1.876-1.5-3-3.752-4.127-6A30.323,30.323,0,0,1,291.4,194.985Zm9.379-.375a28.955,28.955,0,0,0,.75,5.628,20.207,20.207,0,0,0,2.626,4.877,9.171,9.171,0,0,0,4.127,3.377,11.983,11.983,0,0,0,5.252,1.126c3,0,5.628-.375,7.5-1.5a11.927,11.927,0,0,0,4.5-4.127c0-.75.375-1.876.375-3v-3a51.272,51.272,0,0,0-.75-7.128,18.47,18.47,0,0,0-2.251-6.378,16.834,16.834,0,0,0-4.127-4.877,8.826,8.826,0,0,0-6-1.876,10.7,10.7,0,0,0-9,4.5C301.53,185.23,300.779,189.357,300.779,194.61Z" transform="translate(-185.227 -172.85)" fill="#c7ae86"/>
          <path id="Path_499" data-name="Path 499" d="M338.114,242.432H309.976v-3a26.055,26.055,0,0,1,4.877-1.876c1.5-.375,3.377-1.126,4.877-1.5V188.782l.375-5.628a31.246,31.246,0,0,1-5.628,1.5,30.322,30.322,0,0,1-6,.375l-.375-2.251a91.631,91.631,0,0,0,9-3.752,42.6,42.6,0,0,0,8.629-5.628h2.251v62.654a24.27,24.27,0,0,1,4.877,1.5,26.057,26.057,0,0,1,4.877,1.876v3Z" transform="translate(-139.273 -173.4)" fill="#c7ae86"/>
        </g>
      </g>
    </g>
    <rect id="Rectangle_43" data-name="Rectangle 43" width="426.194" height="18.008" transform="translate(374.553 96.8)" fill="#c7ae86"/>
    <rect id="Rectangle_44" data-name="Rectangle 44" width="426.194" height="18.008" transform="translate(374.553 735.716)" fill="#c7ae86"/>
  </g>
</svg>
