<svg xmlns="http://www.w3.org/2000/svg" xmlns:xlink="http://www.w3.org/1999/xlink" width="625" height="1079" viewBox="0 0 625 1079">
  <defs>
    <clipPath id="clip-path">
      <path id="Path_510" data-name="Path 510" d="M0,0H625V1079H0Z" fill="#fff" opacity="0.911"/>
    </clipPath>
  </defs>
  <g id="Mask_Group_2" data-name="Mask Group 2" clip-path="url(#clip-path)">
    <g id="Redstone_Topo_PMS_7502U" transform="translate(-347.15 -159.415)" opacity="0.932">
      <path id="Path_1" data-name="Path 1" d="M103.3,178.2a654.015,654.015,0,0,0,149.585,99.724c6.282,2.945,12.367,5.889,18.06,10.012,7.067,5.3,12.564,12.171,17.864,19.042,23.949,30.427,48.1,61.051,72.044,91.479,18.257,23.164,36.513,46.525,52.218,71.455,18.06,28.857,32.391,59.873,50.451,88.73,27.286,44.169,62.818,83.626,82.449,131.722s18.649,110.128-20.22,144.481c-10.012,8.834-22.183,15.7-29.642,26.894-18.06,27.09.393,64.977-10.993,95.4-7.852,21.2-28.464,34.55-42.01,52.61-14.33,19.238-19.547,38.147-30.541,59.152" transform="translate(57.302 169.621)" fill="none" stroke="#c7ae86" stroke-miterlimit="10" stroke-width="1"/>
      <path id="Path_2" data-name="Path 2" d="M131.4,219.513a667.62,667.62,0,0,1,118.962,28.072c12.76,4.319,25.716,9.03,36.513,17.079,10.993,8.245,19.238,19.434,28.072,30.035a302.523,302.523,0,0,0,96.386,75.971c20.22,10.012,41.617,18.06,59.481,31.605,38.28,29.053,55.358,79.308,91.871,110.52,3.73,3.141,8.049,6.282,12.956,6.871,7.852.785,14.723-5.5,19.238-12.171,14.527-21.594,15.116-49.469,15.312-75.578.2-32.587.2-65.174.393-97.761,0-4.122,0-8.245,2.159-11.778,2.159-3.73,6.085-6.086,10.012-8.049,13.545-7.46,30.427-14.919,43.776-7.067,16.49,9.815,17.471,37.691,35.924,42.991,11.582,3.337,23.753-5.3,28.661-16.293s4.319-23.36,3.73-35.335c-1.963-33.961-3.73-67.922-5.693-102.079-.589-9.815,1.963-23.36,11.778-23.557,3.337,0,6.478,1.57,9.619,2.748,18.649,6.871,39.261-7.067,49.077-24.538s12.564-37.691,19.827-56.144A122.881,122.881,0,0,1,856.163,44.8" transform="translate(84.364 7.416)" fill="none" stroke="#c7ae86" stroke-miterlimit="10" stroke-width="1"/>
      <path id="Path_3" data-name="Path 3" d="M735.125,78.1c-42.6,79.337-27.679,178.054-53.4,264.659-16.49,55.718-49.469,104.773-74.793,156.857-25.323,52.286-43.58,112.445-27.875,168.566,5.3,18.976,11.19,45.422-6.282,53.093-11.386,5.047-23.753-3.23-34.354-9.892a163.548,163.548,0,0,0-73.811-24.831c-10.993-1.009-24.735,1.211-28.268,11.911-4.319,13.526,11.189,23.821,22.772,31.694a86.948,86.948,0,0,1,33.961,48.248c1.767,6.46,2.945,13.324,1.374,19.986-1.767,7.671-6.871,13.929-11.582,20.188-29.25,37.347-55.751,85.393-41.224,131.017,5.889,18.371,18.256,34.723,21.4,53.7,3.337,21-4.711,41.99-12.76,61.774-19.238,47.037-33.524,78.076-52.762,125.113" transform="translate(267.828 39.486)" fill="none" stroke="#c7ae86" stroke-miterlimit="10" stroke-width="1"/>
      <path id="Path_4" data-name="Path 4" d="M668.634,499.636c-17.275,37.567-38.672,74.326-43.58,115.528a95.35,95.35,0,0,0,7.656,50.089c4.319,9.695,11.582,17.572,18.453,25.449a105.155,105.155,0,0,1,10.6,14.138c2.552,3.838,10.012,10.906,5.3,15.552-7.067,6.867-20.612,7.271-29.642,8.281-16.1,2.02-34.157,1.414-46.721,13.936-9.03,8.887-14.33,14.138-26.109,18.177-12.171,4.241-25.127,5.251-34.354,15.35-11.778,13.128-18.845,31.1-20.612,48.675-3.337,30.5,5.1,60.794,9.226,91.09,3.337,24.641,14.527,118.962-16.686,130.676-10.208,3.838-21.594-4.241-32.391-2.02-16.49,3.433-21,26.862-26.7,40.6-9.423,23.429-18.845,46.858-28.268,70.085" transform="translate(301.535 57.399)" fill="none" stroke="#c7ae86" stroke-miterlimit="10" stroke-width="1"/>
      <path id="Path_5" data-name="Path 5" d="M444.474,1072.929c11.386-15.116,27.287-26.305,42.991-37.1,11.386-8.049,22.968-15.9,34.354-23.949,4.711-3.141,9.423-6.675,11.975-11.778,2.159-4.515,2.159-9.815,2.159-14.919-1.374-50.843-10.4-108.361,22.379-147.23,6.282-7.263,13.741-13.741,18.453-21.986s6.086-19.631,0-27.09c-4.515-5.1-11.778-7.263-15.9-12.564-8.834-11.386,1.57-27.679,12.956-36.513" transform="translate(364.527 131.965)" fill="none" stroke="#c7ae86" stroke-miterlimit="10" stroke-width="1"/>
      <path id="Path_7" data-name="Path 7" d="M538,725.019c-4.515,24.146,3.337,54.573-15.9,69.885-8.637,6.871-20.416,8.245-29.053,15.116" transform="translate(419.018 410.579)" fill="none" stroke="#c7ae86" stroke-miterlimit="10" stroke-width="1"/>
      <path id="Path_9" data-name="Path 9" d="M165.2,173.925c9.226,26.894,35.335,45.15,62.818,53.4,27.287,8.049,56.34,7.656,84.8,8.834s57.91,3.926,83.038,17.471c16.293,8.834,30.624,21.986,48.488,26.7,26.5,6.871,57.125-9.619,65.763-35.728,2.552-7.852,3.533-16.686,8.834-23.164,4.908-5.889,12.367-8.834,17.864-14.134,17.864-17.471,4.515-48.488,12.956-72.044,5.693-15.7,20.612-26.7,25.912-42.4,3.337-10.012,2.356-20.808,3.926-31.016,1.57-10.4,6.674-21.4,16.49-24.735" transform="translate(116.916 0)" fill="none" stroke="#c7ae86" stroke-miterlimit="10" stroke-width="1"/>
      <path id="Path_10" data-name="Path 10" d="M217.7,106.633c31.016,26.305,73.026,39.458,113.661,35.728,18.845-1.767,38.083-7.067,56.34-1.963,3.534.982,7.067,2.356,10.6,2.748,14.723,1.374,26.109-15.508,24.538-30.231s-11.778-26.894-21.986-37.691-21.2-21.79-25.52-35.924" transform="translate(167.477 2.119)" fill="none" stroke="#c7ae86" stroke-miterlimit="10" stroke-width="1"/>
      <path id="Path_11" data-name="Path 11" d="M87.6,199.3c29.839,23.164,59.677,46.132,89.516,69.3,4.515,3.534,9.03,7.067,11.975,11.778,6.674,10.993,4.515,26.7,13.938,35.335,10.4,9.423,26.7,3.926,40.635,5.5,21.594,2.356,36.513,22.183,46.721,41.421s19.238,40.635,37.691,51.825c9.226,5.693,20.416,8.441,27.679,16.49,4.122,4.515,6.282,10.4,8.049,16.293a132.715,132.715,0,0,1,5.5,43.973c-.2,5.5-.982,11.386,1.178,16.49,2.748,6.282,9.03,10.208,14.527,14.33a88.808,88.808,0,0,1,30.427,41.421c2.159,6.478,4.122,13.741,9.815,17.668,4.122,2.945,9.619,3.141,14.527,4.908,20.808,6.871,25.52,33.961,26.7,55.947.785,17.471,5.693,34.746,6.086,52.414.2,8.441.2,17.864-2.945,25.912-3.926,10.208-13.349,14.527-6.478,26.5,2.748,4.908,6.871,8.637,10.208,13.153,9.423,12.956,10.012,32.783-1.57,43.776-6.478,6.282-13.741,10.8-18.256,18.845-2.748,4.908-10.993,19.631-11.386,24.342-.982,9.815,6.871,19.827,10.012,29.839,3.141,9.815,4.122,20.612,0,30.231-9.423,22.575-40.439,26.109-57.125,43.973-19.827,21.2-15.9,54.377-34.157,77.934" transform="translate(42.182 189.941)" fill="none" stroke="#c7ae86" stroke-miterlimit="10" stroke-width="1"/>
      <path id="Path_12" data-name="Path 12" d="M46.5,272.7a46.778,46.778,0,0,0,34.354,11.582c23.36-1.767,52.414-25.716,73.615-5.1,16.49,16.1-3.337,44.562,11.189,57.125,11.189,9.619,42.4,1.963,55.358-.393,23.949-4.122,50.843-11.386,73.419,1.178a48.961,48.961,0,0,1,24.538,44.169c-.393,9.619-3.73,19.434-1.57,28.857,3.926,17.471,23.164,25.52,36.709,37.1,15.312,13.152,24.342,31.409,32.391,49.665,7.46,17.079,17.471,32.783,26.894,48.88,3.534,6.282,7.852,7.852,12.76,12.171a44.355,44.355,0,0,1,8.637,10.4,55.251,55.251,0,0,1,7.656,26.5,43.26,43.26,0,0,1-5.5,22.575c-5.5,9.619-14.527,17.471-17.864,27.876-4.515,13.938.982,27.483-.589,41.421-.785,7.263-3.926,14.723-9.815,19.238-5.889,4.319-13.349,5.3-20.023,8.245s-12.956,9.815-10.8,16.686c1.178,3.534,4.122,6.086,5.889,9.423,6.871,12.367-9.423,29.25-17.275,36.906-14.527,13.938-28.661,11.19-44.365,20.612-8.245,4.908-11.189,16.1-9.03,25.52,3.141,14.919,14.919,25.52,21.986,38.476,24.735,44.169-12.171,101.1-62.229,97.564" transform="translate(2.6 258.859)" fill="none" stroke="#c7ae86" stroke-miterlimit="10" stroke-width="1"/>
      <path id="Path_13" data-name="Path 13" d="M183.5,783.916c2.552-7.852,12.956-9.619,21.2-8.834s17.668,2.356,24.146-2.945c6.085-5.1,6.478-14.33,4.319-21.986s-6.282-14.527-7.852-22.379c-3.337-18.06,11.189-37.3,29.446-38.869,15.508-1.374,33.568,7.263,45.15-2.945,7.263-6.478,7.852-17.079,9.619-26.7,4.908-26.3,24.735-41.421,34.942-64.781,8.049-18.649,6.478-39.654,4.515-59.873l-4.711-50.058c-1.57-17.079-3.337-34.746-12.956-48.88-11.582-17.079-31.605-25.716-43.776-42.009-10.012-13.545-.982-38.869-11.975-47.9-2.552-2.159-6.085-2.945-9.423-3.337-52.414-7.852-86.375,62.818-137.611,27.875-14.33-9.815-23.36-25.323-36.12-37.1S59.83,313.566,45.5,323.381" transform="translate(1.637 294.167)" fill="none" stroke="#c7ae86" stroke-miterlimit="10" stroke-width="1"/>
      <path id="Path_14" data-name="Path 14" d="M43.8,389.3c9.815,16.882,30.231,26.894,49.665,24.342,22.575-3.141,46.132-21,65.37-9.03,11.778,7.263,16.1,23.557,28.464,30.035s59.481-13.545,57.714,10.993c-.589,9.03-9.815,20.612-17.275,25.52-11.975,7.852-26.5,10.8-39.065,17.668-32.587,18.06-44.758,58.107-53.984,94.227-6.282,24.931-12.564,49.666-19.042,74.6" transform="translate(0 362.117)" fill="none" stroke="#c7ae86" stroke-miterlimit="10" stroke-width="1"/>
    </g>
  </g>
</svg>
